<?xml version="1.0" standalone="no"?>
<!DOCTYPE svg PUBLIC "-//W3C//DTD SVG 1.1//EN" "http://www.w3.org/Graphics/SVG/1.1/DTD/svg11.dtd" >
<svg xmlns="http://www.w3.org/2000/svg">
<metadata>
Created by FontForge 20120731 at Thu Mar 31 05:15:03 2016
 By Ads
</metadata>
<defs>
<font id="iconfont" horiz-adv-x="1024" >
  <font-face 
    font-family="iconfont"
    font-weight="500"
    font-stretch="normal"
    units-per-em="1024"
    panose-1="2 0 6 3 0 0 0 0 0 0"
    ascent="896"
    descent="-128"
    x-height="792"
    bbox="-0.395349 -129.042 1919 896.75"
    underline-thickness="50"
    underline-position="-100"
    unicode-range="U+0078-EA10"
  />
<missing-glyph horiz-adv-x="374" 
d="M34 0v682h272v-682h-272zM68 34h204v614h-204v-614z" />
    <glyph glyph-name=".notdef" horiz-adv-x="374" 
d="M34 0v682h272v-682h-272zM68 34h204v614h-204v-614z" />
    <glyph glyph-name=".null" horiz-adv-x="0" 
 />
    <glyph glyph-name="nonmarkingreturn" horiz-adv-x="341" 
 />
    <glyph glyph-name="x" unicode="x" horiz-adv-x="1001" 
d="M281 543q-27 -1 -53 -1h-83q-18 0 -36.5 -6t-32.5 -18.5t-23 -32t-9 -45.5v-76h912v41q0 16 -0.5 30t-0.5 18q0 13 -5 29t-17 29.5t-31.5 22.5t-49.5 9h-133v-97h-438v97zM955 310v-52q0 -23 0.5 -52t0.5 -58t-10.5 -47.5t-26 -30t-33 -16t-31.5 -4.5q-14 -1 -29.5 -0.5
t-29.5 0.5h-32l-45 128h-439l-44 -128h-29h-34q-20 0 -45 1q-25 0 -41 9.5t-25.5 23t-13.5 29.5t-4 30v167h911zM163 247q-12 0 -21 -8.5t-9 -21.5t9 -21.5t21 -8.5q13 0 22 8.5t9 21.5t-9 21.5t-22 8.5zM316 123q-8 -26 -14 -48q-5 -19 -10.5 -37t-7.5 -25t-3 -15t1 -14.5
t9.5 -10.5t21.5 -4h37h67h81h80h64h36q23 0 34 12t2 38q-5 13 -9.5 30.5t-9.5 34.5q-5 19 -11 39h-368zM336 498v228q0 11 2.5 23t10 21.5t20.5 15.5t34 6h188q31 0 51.5 -14.5t20.5 -52.5v-227h-327z" />
    <glyph glyph-name="uniE600" unicode="&#xe600;" 
d="M138 582q-7 7 -7 16.5t7 16.5t16.5 7t15.5 -7l211 -210q6 -7 6 -16.5t-6 -16.5h-1l-211 -212q-7 -6 -16.5 -6t-16 6.5t-6.5 16t6 16.5l196 195zM646 582q-7 7 -7 16.5t6.5 16.5t16 7t16.5 -7l210 -210q7 -7 7 -16.5t-7 -16.5l-212 -212q-6 -6 -15.5 -6t-16.5 6.5t-7 16
t7 16.5l196 195zM392 582l194 -194l-196 -195q-7 -7 -7 -16.5t7 -16t16.5 -6.5t16.5 6l211 212q7 7 7 16.5t-7 16.5l-210 210q-6 7 -15.5 7t-16.5 -7t-7 -16.5t7 -16.5z" />
    <glyph glyph-name="uniE601" unicode="&#xe601;" horiz-adv-x="1025" 
d="M995 825v-209v-305v-159q0 -111 -78 -189t-188.5 -78t-188.5 78t-78 189v159v305v209q-12 0 -20.5 8.5t-8.5 20.5t8.5 20.5t20.5 8.5h533q12 0 20.5 -8.5t8.5 -20.5t-8.5 -20.5t-20.5 -8.5zM567 616q0 11 -2 16t-8.5 8.5t-16.5 3.5q-9 0 -15.5 -3.5t-8.5 -8.5t-2 -16v-25
q0 -9 2 -14t8 -8.5t17 -3.5q10 0 16 3.5t8 8.5t2 15v24zM595 644l-56 -149h14l56 149h-14zM634 547q0 10 -2.5 15t-8.5 8.5t-16 3.5t-16 -3t-8 -8t-2 -16v-26q0 -9 2 -13.5t8 -8t17 -3.5q10 0 16 3.5t8 8.5t2 14v25zM947 311h-436v-160q0 -90 63.5 -153.5t154 -63.5
t154.5 63.5t64 153.5v160zM607.5 508q-2.5 0 -3.5 1.5t-1 7.5v36q0 6 1 7.5t3.5 1.5t3 -1.5t0.5 -7.5v-36q0 -6 -0.5 -7.5t-3 -1.5zM541 578q-3 0 -3.5 1t-0.5 7v37q0 5 0.5 6.5t3 1.5t3 -1.5t0.5 -6.5v-37q0 -5 -0.5 -6.5t-2.5 -1.5zM395 356q-12 -17 -33 -25.5t-48 -8.5
q-34 0 -55.5 11t-31 30.5t-9.5 49.5h80q0 -22 0.5 -28t5 -10t11.5 -4q6 0 10 4t4.5 9.5t0.5 23.5v51q-6 -13 -18 -19t-29 -6q-22 0 -39 11.5t-21.5 28t-4.5 44.5v26q0 33 2.5 49.5t14 30t31 21.5t45.5 8q32 0 52.5 -9t32 -25.5t13 -35t1.5 -70.5v-44q0 -57 -1.5 -76.5
t-13.5 -36.5zM330 570q0 21 -3.5 27.5t-12.5 6.5q-5 0 -10.5 -5t-5.5 -27v-60q0 -20 5.5 -24.5t10.5 -4.5q9 0 12.5 6t3.5 23v58zM180 489q9 -14 9 -65q0 -38 -8.5 -59t-30 -32t-55.5 -11q-38 0 -59.5 12.5t-28.5 31t-7 64.5v25h80v-52q0 -21 2.5 -26.5t11.5 -5.5t12 7t3 37
v22q0 19 -4 27t-12.5 11t-31.5 3v46q29 0 35.5 2.5t9.5 9.5t3 23v18q0 16 -3.5 21.5t-10.5 5.5q-9 0 -12 -5.5t-3 -24.5v-26h-80v27q0 46 21 62t67 16q57 0 77.5 -22t20.5 -62q0 -27 -7.5 -38.5t-25.5 -21.5q18 -6 27 -20z" />
    <glyph glyph-name="uniE602" unicode="&#xe602;" horiz-adv-x="1340" 
d="M1078 -55l-136 136l-147 147l-62 1q-2 -2 -3 -4q-99 -96 -237 -96q-92 0 -170.5 46t-124.5 124.5t-46 171t46 171t124.5 124t171 45.5t171 -45.5t124 -124t45.5 -171.5q0 -46 -12 -90q-7 -9 -10 -19l-1 -5q-5 -19 5 -36t28 -22q27 -7 46 13h1v1q8 9 11 20l1 5q1 7 1 14
q17 58 17 118q0 116 -57 214.5t-155.5 155.5t-214.5 57t-214.5 -57t-155.5 -155.5t-57 -214.5t57 -214t155.5 -155t214.5 -57q152 0 270 96l254 -255q13 -12 30.5 -12t30 12.5t12.5 30t-13 30.5z" />
    <glyph glyph-name="uniE603" unicode="&#xe603;" 
d="M64 896v-337h337v337h-337zM350 610h-236v236h236v-236zM633 229v-336h337v336h-337zM920 -57h-236v236h236v-236zM633 619v-336h337v336h-337zM920 333h-236v236h236v-236zM209 581h46v-543h-46v543zM232 451h444v-46h-444v46zM232 84h444v-46h-444v46z" />
    <glyph glyph-name="uniE604" unicode="&#xe604;" 
d="M400 896h222v-1024h-222v1024z" />
    <glyph glyph-name="uniE605" unicode="&#xe605;" 
d="M496 896h41v-391h-41v391zM496 263h41v-390h-41v390zM595 384.5q0 -33.5 -23.5 -57t-57 -23.5t-57.5 23.5t-24 57t24 57t57.5 23.5t57 -23.5t23.5 -57z" />
    <glyph glyph-name="uniE606" unicode="&#xe606;" 
d="M138 688q26 26 57 44q22 12 38 17t23.5 5.5t9.5 1.5q16 13 12.5 30t-22.5 18q-15 0 -32.5 -6t-27.5 -12l-10 -6q-51 -31 -77 -63l-39 39v-116h116zM931 506v283q0 23 -20.5 41.5t-44.5 18.5h-486q-23 0 -38.5 -18t-15.5 -42v-172h46v146q0 16 12 28t30 12l429 -1
q17 0 29 -11.5t12 -28.5v-195q-9 4 -16 4h-7v-1h-558v1h-172q-23 0 -42 -20.5t-19 -44.5v-510q0 -23 18.5 -38.5t42.5 -15.5h737q25 0 44 15.5t19 38.5v510v0zM861 49q0 -26 -23 -35v-2h-510v-1h-151q-15 0 -26.5 11t-11.5 27l1 414q0 16 11 27t27 11h148v-1h46v1h454l1 -1
h1h10v-2q24 -8 24 -35z" />
    <glyph glyph-name="uniE607" unicode="&#xe607;" 
d="M138 688q26 26 57 44q22 12 38 17t23.5 5.5t9.5 1.5q16 13 12.5 30t-22.5 18q-15 0 -32.5 -6t-27.5 -12l-10 -6q-51 -31 -77 -63l-39 39v-116h116zM931 506v283q0 23 -20.5 41.5t-44.5 18.5h-486q-23 0 -38.5 -18t-15.5 -42v-172h46v146q0 16 12 28t30 12l429 -1
q17 0 29 -11.5t12 -28.5v-195q-9 4 -16 4h-7v-1h-558v1h-172q-23 0 -42 -20.5t-19 -44.5v-510q0 -23 18.5 -38.5t42.5 -15.5h737q25 0 44 15.5t19 38.5v510v0zM861 49q0 -26 -23 -35v-2h-510v-1h-151q-15 0 -26.5 11t-11.5 27l1 414q0 16 11 27t27 11h148v-1h46v1h454l1 -1
h1h10v-2q24 -8 24 -35z" />
    <glyph glyph-name="uniE608" unicode="&#xe608;" 
d="M164.5 533q-61.5 0 -105 -43.5t-43.5 -105.5t43.5 -105.5t105 -43.5t105.5 43.5t44 105.5t-44 105.5t-105.5 43.5zM165 285q-41 0 -70 29t-29 70t29 70t70 29t70 -29t29 -70t-29 -70t-70 -29zM512 533q-62 0 -105.5 -43.5t-43.5 -105.5t43.5 -105.5t105.5 -43.5
t105.5 43.5t43.5 105.5t-43.5 105.5t-105.5 43.5zM512 285q-41 0 -70 29t-29 70t29 70t70 29t70 -29t29 -70t-29 -70t-70 -29zM859.5 533q-61.5 0 -105.5 -43.5t-44 -105.5t44 -105.5t105.5 -43.5t105 43.5t43.5 105.5t-43.5 105.5t-105 43.5zM859 285q-41 0 -70 29t-29 70
t29 70t70 29t70 -29t29 -70t-29 -70t-70 -29z" />
    <glyph glyph-name="uniE609" unicode="&#xe609;" 
d="M934 855h-844q-75 -2 -74 -74v-595q-1 -33 19 -54t55 -21h124v-149q0 -2 -0.5 -10.5t-0.5 -14t2 -12t6 -10.5q2 -2 12 -2q12 0 21 9l184 189h496q35 0 54.5 19.5t19.5 55.5v595q-1 70 -74 74zM958 210q0 -2 -0.5 -5t-4.5 -11.5t-9 -15t-14 -12t-21 -5.5q-109 -4 -496 0
l-149 -149v148q-96 -2 -149 1q-19 1 -31.5 13.5t-14.5 24.5l-3 11v546v6q0 3 3 11.5t8 15t15 11.5t23 6q615 6 794 0q22 -1 34.5 -13.5t13.5 -24.5l1 -12v-546zM780 533h-536q-12 0 -21 -7.5t-9 -17.5t9 -17.5t21 -7.5h536q12 0 21 7.5t9 17.5t-9 17.5t-21 7.5zM779 657
h-534q-12 0 -21.5 -7.5t-9.5 -17.5t9.5 -17.5t21.5 -7.5h534q12 0 21.5 7.5t9.5 17.5t-9.5 17.5t-21.5 7.5zM606 409h-361q-13 0 -22 -7.5t-9 -17.5t9 -17.5t22 -7.5h361q12 0 21 7.5t9 17.5t-9 17.5t-21 7.5z" />
    <glyph glyph-name="uniE60A" unicode="&#xe60a;" 
d="M653.5 381q54.5 0 93 38.5t38.5 93t-38.5 93t-93 38.5t-93 -38.5t-38.5 -93t38.5 -93t93 -38.5zM653.5 590q33.5 0 57 -23.5t23.5 -57t-23.5 -57t-57 -23.5t-57 23.5t-23.5 57t23.5 57t57 23.5zM532 880q-364 -361 -500 -499q-11 -12 -15 -23.5t-3 -20.5t7.5 -20
t11.5 -16.5t14.5 -14.5t11.5 -11q45 -45 182.5 -182t185.5 -186q20 -21 45 -16t60 42q61 62 179.5 180t206.5 206l88 88v473h-474zM953 433q-335 -334 -447 -447q-40 -40 -85 8q-39 40 -157.5 157t-152.5 151q-25 23 -24.5 40.5t24.5 38.5q45 46 157 158t202 201l89 88h394
v-395z" />
    <glyph glyph-name="uniE60B" unicode="&#xe60b;" 
d="M514 837q55 0 108.5 -26t85 -61t31.5 -64v-173q0 -61 -20.5 -131t-66.5 -106q-25 -19 -21 -65q1 -11 8 -18t20.5 -11.5t16.5 -6.5l231 -116q3 -2 7 -3q21 -9 19 -39v-64q-9 -22 -24 -22h-795q-6 0 -12 5.5t-8 10.5l-2 6v64q0 30 20 39q3 2 5 3l237 116q35 19 39 36
q5 45 -21 65q-45 36 -65.5 106t-20.5 131v173q0 28 32.5 63.5t87 61.5t108.5 26zM514 880q-67 0 -131 -32.5t-102 -82.5t-38 -101v-151q0 -41 7.5 -87.5t33.5 -103t67 -88.5l-240 -129l-7 -3q-5 -1 -16 -7t-19.5 -13t-15 -18.5t-5.5 -24.5v-89q0 -26 18.5 -44t44.5 -18h802
q26 0 44.5 18t18.5 44v89q0 13 -7 24.5t-15 18.5t-19 13t-15 7.5t-7 2.5l-239 128q40 31 65.5 86.5t34 102.5t8.5 91v151q0 51 -38 101t-100.5 82.5t-129.5 32.5z" />
    <glyph glyph-name="uniE60C" unicode="&#xe60c;" 
d="M514 880q-67 0 -131 -32.5t-102 -82.5t-38 -101v-151q0 -41 7.5 -87.5t33.5 -103t67 -88.5l-240 -129l-7 -3q-5 -1 -16 -7t-19.5 -13t-15 -18.5t-5.5 -24.5v-89q0 -26 18.5 -44t44.5 -18h802q26 0 44.5 18t18.5 44v89q0 13 -7 24.5t-15 18.5t-19 13t-15 7.5t-7 2.5
l-239 128q40 31 65.5 86.5t34 102.5t8.5 91v151q0 51 -38 101t-100.5 82.5t-129.5 32.5z" />
    <glyph glyph-name="uniE60D" unicode="&#xe60d;" 
d="M979 491h-76q-5 22 -14 44l-5 10q-8 21 -19 40l53 53q9 9 9 21t-9 20l-111 111q-8 8 -20 8t-21 -8l-53 -53q-19 11 -42 20l-10 4q-20 9 -42 14v76q0 12 -8.5 20.5t-20.5 8.5h-156q-12 0 -20.5 -8.5t-8.5 -20.5v-75q-22 -6 -42 -14l-12 -6q-21 -8 -40 -19l-53 53
q-9 8 -21 8t-20 -8l-111 -111q-8 -8 -8 -20t8 -21l53 -53q-11 -19 -21 -42l-3 -10q-9 -20 -14 -42h-76q-12 0 -20.5 -8.5t-8.5 -20.5v-156q0 -12 8.5 -20.5t20.5 -8.5h75q6 -22 15 -44l5 -10q8 -21 19 -40l-53 -53q-8 -9 -8 -21t8 -20l111 -111q8 -8 20 -8t21 8l53 53
q20 -11 39 -19l9 -4l4 -1q20 -9 42 -14v-76q0 -12 8.5 -20.5t20.5 -8.5h156q12 0 20.5 8.5t8.5 20.5v76q21 5 44 14l10 5q21 8 40 19l53 -53q9 -8 21 -8t20 8l111 111q8 8 8 20t-8 21l-53 53q11 19 20 42l2 4l2 6q9 20 14 42h76q12 0 20.5 8.5t8.5 20.5v156q0 12 -8.5 20.5
t-20.5 8.5zM965 312h-95l-3 -13q-6 -25 -17 -50l-1 -5l-3 -5q-10 -24 -23 -46l-7 -11l63 -78l-87 -87l-78 63l-11 -7q-22 -13 -48 -24l-4 -2l-5 -2q-24 -10 -49 -16l-20 -4v-94h-130v94l-20 4q-25 6 -52 17l-4 2l-4 2q-24 10 -46 23l-11 7l-57 -63l-108 108l63 57l-6 11
q-14 22 -25 48l-2 3l-2 6q-10 24 -16 49l-3 13h-95v144h95l3 13q6 25 17 51l1 3l3 6q10 24 24 46l6 11l-67 68l101 101l68 -67l11 7q22 13 47 24l5 2l5 2q24 9 49 16l13 3v95h144v-95l13 -3q25 -6 51 -17l4 -1l5 -3q24 -10 46 -23l11 -7l68 67l101 -101l-67 -68l7 -11
q13 -22 24 -48l4 -9q10 -24 16 -49l3 -13h95v-144zM512 600q-89 0 -152.5 -63.5t-63.5 -152.5t63.5 -152.5t152.5 -63.5t152.5 63.5t63.5 152.5t-63.5 152.5t-152.5 63.5zM512 211q-71 0 -122 51t-51 122t51 122t122 51t122 -51t51 -122t-51 -122t-122 -51z" />
    <glyph glyph-name="uniE60E" unicode="&#xe60e;" 
d="M979 491h-76q-5 22 -14 44l-5 10q-8 21 -19 40l53 53q9 9 9 21t-9 20l-111 111q-8 8 -20 8t-21 -8l-53 -53q-19 11 -42 20l-10 4q-20 9 -42 14v76q0 12 -8.5 20.5t-20.5 8.5h-156q-12 0 -20.5 -8.5t-8.5 -20.5v-75q-22 -6 -42 -14l-12 -6q-21 -8 -40 -19l-53 53
q-9 8 -21 8t-20 -8l-111 -111q-8 -8 -8 -20t8 -21l53 -53q-11 -19 -21 -42l-3 -10q-9 -20 -14 -42h-76q-12 0 -20.5 -8.5t-8.5 -20.5v-156q0 -12 8.5 -20.5t20.5 -8.5h75q6 -22 15 -44l5 -10q8 -21 19 -40l-53 -53q-8 -9 -8 -21t8 -20l111 -111q8 -8 20 -8t21 8l53 53
q20 -11 39 -19l9 -4l4 -1q20 -9 42 -14v-76q0 -12 8.5 -20.5t20.5 -8.5h156q12 0 20.5 8.5t8.5 20.5v76q21 5 44 14l10 5q21 8 40 19l53 -53q9 -8 21 -8t20 8l111 111q8 8 8 20t-8 21l-53 53q11 19 20 42l2 4l2 6q9 20 14 42h76q12 0 20.5 8.5t8.5 20.5v156q0 12 -8.5 20.5
t-20.5 8.5zM512 168q-89 0 -152.5 63.5t-63.5 152.5t63.5 152.5t152.5 63.5t152.5 -63.5t63.5 -152.5t-63.5 -152.5t-152.5 -63.5zM512 557q-71 0 -122 -51t-51 -122t51 -122t122 -51t122 51t51 122t-51 122t-122 51z" />
    <glyph glyph-name="uniE60F" unicode="&#xe60f;" 
d="M915 858h-806q-39 0 -66 -27.5t-27 -66.5v-639q0 -39 24 -62.5t62 -23.5h281l129 -129l108 129h302q38 0 62 23.5t24 62.5v639q0 39 -27 66.5t-66 27.5zM636 362h-270q-11 0 -19 6.5t-8 15.5t8 15.5t19 6.5h270q11 0 19 -6.5t8 -15.5t-8 -15.5t-19 -6.5zM745 557h-466
q-11 0 -18.5 6t-7.5 15t7.5 15.5t18.5 6.5h466q11 0 18.5 -6.5t7.5 -15.5t-7.5 -15t-18.5 -6z" />
    <glyph glyph-name="uniE610" unicode="&#xe610;" 
d="M328 467q38 0 65 26.5t27 65t-27 65t-65 26.5t-65 -26.5t-27 -65t27 -65t65 -26.5zM328.5 595q15.5 0 26 -10.5t10.5 -26t-10.5 -26t-26 -10.5t-26 10.5t-10.5 26t10.5 26t26 10.5zM960 797h-896q-20 0 -34 -14t-14 -34v-730q0 -20 14 -34t34 -14h896q20 0 34 14t14 34
v730q0 20 -14 34t-34 14zM953 63q0 -37 -37 -37h-808q-17 0 -27 10t-10 27v642q0 37 37 37h808q17 0 27 -10t10 -27v-642zM808 492l-235 -258l-169 119q-9 9 -23 8q-13 1 -22 -8l-166 -220q-9 -8 -9 -20t8.5 -20.5t21 -8.5t20.5 8l153 203l169 -119q9 -9 22 -9t21 9l251 275
q8 9 8 21t-8.5 20.5t-20.5 8.5t-21 -9z" />
    <glyph glyph-name="uniE611" unicode="&#xe611;" 
d="M960 -29h-896q-20 0 -34 14t-14 33v618q0 19 17.5 35t37.5 16h184q2 5 5 12t13 26t18.5 34t19 26.5t17.5 11.5h365q13 0 32 -27.5t32 -54.5l12 -28l191 -4q20 0 34 -14t14 -33v-618q0 -19 -14 -33t-34 -14zM953 595q0 18 -9.5 27.5t-27.5 9.5h-184q-8 16 -18 40.5
t-15.5 37t-15.5 22.5t-24 10h-294q-13 0 -22.5 -5t-16 -16.5t-10.5 -22.5t-11 -31t-13 -35h-184q-37 0 -37 -37v-532q0 -16 10.5 -26.5t26.5 -10.5h808q16 0 26.5 11t10.5 26v532zM512 136q-91 0 -155.5 64.5t-64.5 156t64.5 156t155.5 64.5t155.5 -64.5t64.5 -156
t-64.5 -156t-155.5 -64.5zM512 517q-66 0 -113 -47t-47 -113.5t47 -113.5t113 -47t113 47t47 113.5t-47 113.5t-113 47z" />
    <glyph glyph-name="uniE612" unicode="&#xe612;" 
d="M953 705h-496v37q0 25 -15 40t-40 15h-338q-20 0 -34 -14t-14 -34v-96v-85v-49v-500q0 -20 14 -34t34 -14h896q20 0 34 14t14 34v500v134q0 25 -14.5 39t-40.5 13zM953 63q-1 -19 -8.5 -28.5t-28.5 -8.5h-808q-18 -3 -27.5 7t-9.5 30v422h882v-422zM953 540h-882v165
q0 17 9.5 27t27.5 10h257q18 1 27.5 -8.5t9.5 -28.5v-55h551v-110z" />
    <glyph glyph-name="uniE613" unicode="&#xe613;" 
d="M512 880q-205 0 -350.5 -145.5t-145.5 -350.5t145.5 -350.5t350.5 -145.5t350.5 145.5t145.5 350.5t-145.5 350.5t-350.5 145.5zM751 269q0 -20 -14 -33.5t-34 -13.5h-131l-179 -95v95h-72q-20 0 -34 13.5t-14 33.5v261q0 19 14 33t34 14h382q20 0 34 -14t14 -33v-261z
" />
    <glyph glyph-name="uniE614" unicode="&#xe614;" 
d="M512 880q-205 0 -350.5 -145.5t-145.5 -350.5t145.5 -350.5t350.5 -145.5t350.5 145.5t145.5 350.5t-145.5 350.5t-350.5 145.5zM269 279l-1 -3v-3q0 -6 -1 -26v-14h-76q0 9 0.5 29t0.5 23q2 6 6.5 10.5t8.5 6.5t12.5 4.5t11.5 4.5q6 2 24.5 10t28.5 12q2 1 7 2.5t7 1.5
q5 4 15 25l6 1q0 5 -4 9t-5 7q0 5 -1 14t-1 14l-7 2q-7 4 -10 38q-1 1 1.5 6t2.5 10q-8 34 0 57t26 29q44 18 71 2l7 -7l10 -2q1 -11 4 -24q-1 0 -1 -2q-6 -10 -5 -18v-6q3 -45 18 -59q0 -3 -1 -7q-2 -9 -5 -14q-1 -2 -5 -4t-5 -4q-2 -4 -2.5 -12t-1.5 -10.5t-5 -7.5t-4 -11
l9 -1q1 -3 2 -5q-15 -6 -43 -18q-22 -10 -29 -13q-4 -1 -14 -5q-13 -5 -20.5 -8t-17.5 -12t-14 -22zM757 200h-471q-1 12 0 40t1 33q2 8 9 14t12.5 9t17 7t16.5 6q8 3 34 14.5t40 17.5q10 3 20 5q7 5 21 34l9 2q-1 7 -6 13t-7 9q-2 25 -3 40q0 -1 -2.5 -0.5t-5.5 1.5l-2 1
q-4 2 -6.5 7t-4 12t-2 12t-1 13.5t-0.5 9.5q-1 2 2.5 9t2.5 13q-10 48 1.5 80.5t35.5 40.5q62 26 100 2l9 -9l15 -2q4 -2 7 -7t4 -9l2 -3q4 -19 4 -48q0 -1 -2 -20.5t-1 -25.5q0 -3 5 -14q6 -12 2 -37q-3 -13 -7 -19q-2 -2 -7.5 -5t-7.5 -7q-2 -5 -3 -16t-2 -15t-6.5 -11
t-6.5 -15q5 -1 13 -2q14 -29 21 -34q10 -2 20 -5q13 -6 39.5 -17.5t34.5 -14.5q4 -2 15.5 -6t17.5 -7t12.5 -9t9.5 -14q0 -5 0.5 -33t0.5 -40zM852 233h-76q-1 6 -1 15v25v3l-1 3q-4 13 -14 22t-17.5 12t-20.5 8q-10 3 -14 5q-11 5 -29 13q-28 12 -43 19v2q1 1 1 2l7 1
q-1 5 -4.5 9t-4.5 7q-2 19 -3 28l-7 2q-7 4 -9 25q3 3 5 6q7 10 10 27q6 30 -3 48l-3 6v1t-1 1q0 2 1 7q8 15 21 19q44 18 71 2l6 -7l11 -2q2 -1 4.5 -4.5t3.5 -6.5l1 -2q3 -14 3 -34q0 -1 -1.5 -15t-0.5 -18q0 -2 4 -10q4 -9 1 -26q-2 -9 -5 -14q-1 -2 -5 -4t-6 -4
q-1 -4 -1.5 -12t-1.5 -10.5t-5 -7.5t-4 -11q4 -1 9 -1q9 -21 14 -25q3 0 8 -1l7 -3q9 -4 28 -12t24 -10q4 -2 12 -4.5t12 -4.5t9 -6.5t7 -10.5q0 -3 0.5 -23t0.5 -29z" />
    <glyph glyph-name="uniE615" unicode="&#xe615;" 
d="M512 880q-205 0 -350.5 -145.5t-145.5 -350.5t145.5 -350.5t350.5 -145.5t350.5 145.5t145.5 350.5t-145.5 350.5t-350.5 145.5zM659 139q0 -9 -6.5 -15t-15.5 -6h-61h-151h-121q-9 0 -15.5 6t-6.5 15v416q0 9 6.5 15.5t15.5 6.5h79v-230h-64v-27h64v-46h-64v-28h64v-37
h2l-2 -27h276v-43zM788 231q0 -9 -6.5 -15.5t-16.5 -6.5h-60l-152 1l-120 -1q-9 0 -15.5 6.5t-6.5 15.5v416q0 9 6.5 15.5t15.5 6.5h189v-138q0 -5 6.5 -11.5t12.5 -6.5h147v-282zM788 527l-1 4h-146v138h5q9 0 16 -7l119 -120q4 -4 6 -11h1v-4zM448 292h303v28h-303v-28z
M448 356h303l1 29l-304 -1v-28zM613 457h-165v-27h165v27zM319 182h64v27h-64v-27z" />
    <glyph glyph-name="uniE616" unicode="&#xe616;" 
d="M330 543q-14 0 -24.5 -8.5t-10.5 -21t10.5 -20.5t24.5 -8q13 0 21 8t8 21t-8 21t-21 8zM494 485q13 0 21 8t8 21t-8 21t-21 8q-14 0 -24.5 -8.5t-10.5 -21t10.5 -20.5t24.5 -8zM570 375q-9 0 -16 -7.5t-7 -16t7 -15.5t16 -7q13 0 21 7t8 16t-8 16t-21 7zM699 375
q-9 0 -16 -7.5t-7 -16t7 -15.5t16 -7q13 0 21 7t8 16t-8 16t-21 7zM512 880q-205 0 -350.5 -145.5t-145.5 -350.5t145.5 -350.5t350.5 -145.5t350.5 145.5t145.5 350.5t-145.5 350.5t-350.5 145.5zM406 247q-22 0 -82 12l-82 -41l24 70q-94 65 -94 156q0 83 68.5 140
t165.5 57q87 0 154 -46t82 -116q-12 1 -22 1q-83 0 -141 -53.5t-58 -129.5q0 -24 7 -49q-12 -1 -22 -1zM751 166l18 -58l-64 35q-47 -11 -70 -11q-84 0 -141.5 49t-57.5 118.5t57.5 119t141.5 49.5q79 0 138.5 -50t59.5 -118q0 -73 -82 -134z" />
    <glyph glyph-name="uniE617" unicode="&#xe617;" 
d="M512 880q-205 0 -350.5 -145.5t-145.5 -350.5t145.5 -350.5t350.5 -145.5t350.5 145.5t145.5 350.5t-145.5 350.5t-350.5 145.5zM307 549h409q8 0 15 -3l-197 -138q-13 -13 -22.5 -13t-22.5 13l-196 138q7 3 14 3zM751 244q0 -14 -10 -24.5t-24 -10.5h-410
q-14 0 -24 10.5t-10 24.5v261q0 1 1 5l202 -144q15 -15 36 -15t36 15l202 144q1 -4 1 -5v-261z" />
    <glyph glyph-name="uniE618" unicode="&#xe618;" 
d="M512 880q-205 0 -350.5 -145.5t-145.5 -350.5t145.5 -350.5t350.5 -145.5t350.5 145.5t145.5 350.5t-145.5 350.5t-350.5 145.5zM778 265q0 -2 -1 -4.5t-4.5 -6.5t-7.5 -4.5t-10.5 5t-12.5 19.5l-19 27q1 -5 0 -13.5t-12.5 -30t-33.5 -38.5l10 -10q1 0 3.5 -1t9 -4
t11.5 -6t9 -8.5t4.5 -10.5t-4 -11.5t-15.5 -13.5q-4 -2 -10.5 -4.5t-25.5 -7.5t-37 -6t-41.5 5.5t-41.5 22.5q-5 2 -13.5 4t-28 -2t-32.5 -21q-11 -3 -29 -6.5t-57.5 -2t-60.5 17.5q-1 2 -3.5 4t-6.5 8.5t-4.5 12t5 12t18.5 9.5l28 9q-40 42 -55 92q0 -2 -1 -5t-3.5 -11.5
t-6.5 -15t-10.5 -13.5t-15.5 -10q-1 0 -2.5 0.5t-6 2.5t-6.5 6.5t-4 13.5t1 23q0 3 0.5 8.5t4.5 21t11 30.5t22 34t35 35q0 5 0.5 13.5t3.5 33t9 47t19 50.5t30.5 49t47 36.5t65.5 18.5q4 0 10.5 1t26 -1t38 -8t41.5 -23.5t41 -43t33 -70.5t21 -103q4 0 26 -22
q61 -61 38 -134z" />
    <glyph glyph-name="uniE619" unicode="&#xe619;" 
d="M819 459zM658 203zM658 171zM275 481q27 0 45.5 19t18.5 45.5t-18.5 45.5t-45.5 19t-46 -19t-19 -45.5t19 -45.5t46 -19zM275 567q9 0 15 -6t6 -15t-6 -15.5t-15 -6.5t-15.5 6.5t-6.5 15.5t6.5 15t15.5 6zM16 761v-754h992v754h-992zM965 50h-906v64l216 238l108 -108
l-2 -3l153 -148l43 21l-142 142l228 247l302 -367v-86zM965 209l-302 358l-259 -280l-129 129l-216 -233v535h906v-509z" />
    <glyph glyph-name="uniE61A" unicode="&#xe61a;" 
d="M819 459zM658 203zM658 171zM57 704h269l83 -124h434v-186h41v228h-455l-82 124h-331v-724h661v42h-620v640zM884 188v124h-41v-124h-124v-42h124v-124h41v124h124v42h-124z" />
    <glyph glyph-name="uniE61B" unicode="&#xe61b;" 
d="M934 223v-199h-844v199h-74v-273h992v273h-74zM526 198l273 280q11 11 11 26.5t-11 26.5t-26 11t-26 -11l-185 -191v445q0 14 -11 23.5t-26.5 9.5t-26.5 -9.5t-11 -23.5v-441l-182 187q-11 11 -26 11t-25.5 -11t-10.5 -26.5t10 -26.5z" />
    <glyph glyph-name="uniE61C" unicode="&#xe61c;" 
d="M474 270h76v76h229q28 0 39.5 -1.5t22 -9t12.5 -22t2 -43.5h77v76q0 76 -77 76h-305v76h-76v-76l-291 -5q-38 0 -64.5 -27t-26.5 -65v-55h77v7q0 24 1 33.5t8 19.5t22.5 13t44.5 3h229v-76zM366 575h292q18 0 31.5 14.5t13.5 35.5v129q0 21 -13.5 35.5t-31.5 14.5h-292
q-19 0 -32 -14.5t-13 -35.5v-129q0 -21 13 -35.5t32 -14.5zM211 193h-161q-14 0 -24 -14t-10 -34v-133q0 -20 10 -34t24 -14h161q14 0 24 14t10 34v133q0 20 -10 34t-24 14zM592 193h-160q-14 0 -24 -14t-10 -34v-133q0 -20 9.5 -34t24.5 -14h160q15 0 24.5 14t9.5 34v133
q0 20 -9.5 34t-24.5 14zM974 193h-161q-14 0 -24 -14t-10 -34v-133q0 -20 10 -34t24 -14h161q14 0 24 14t10 34v133q0 20 -10 34t-24 14z" />
    <glyph glyph-name="uniE61D" unicode="&#xe61d;" 
d="M850 215q-47 0 -85.5 -25.5t-57.5 -66.5l-385 197q10 26 10 53q0 22 -7 44l390 212q21 -35 57 -55.5t78 -20.5q66 0 112 46.5t46 111.5t-46 111.5t-111.5 46.5t-112 -46.5t-46.5 -111.5q0 -17 4 -34l-393 -214q-22 31 -56 49.5t-73 18.5q-66 0 -112 -46.5t-46 -112
t46 -111.5t112 -46q75 0 122 58l397 -204q-1 -8 -1 -12q0 -65 46.5 -111.5t112 -46.5t111.5 46.5t46 111.5t-46 111.5t-112 46.5zM850 824q47 0 80 -33t33 -80t-33 -80t-80 -33t-80 33t-33 80t33 80t80 33zM174 260q-47 0 -80 33t-33 79.5t33 79.5t80 33q58 0 92 -48l18 -39
q3 -13 3 -25q0 -47 -33 -80t-80 -33zM850 -56q-47 0 -80 33t-33 80t33 80t80 33t80 -33t33 -80t-33 -80t-80 -33z" />
    <glyph glyph-name="uniE61E" unicode="&#xe61e;" 
d="M512 822q38 0 77 -19t66 -46t44.5 -57.5t16.5 -52.5v-146q0 -2 0.5 -20.5t0 -23.5t-1 -23t-2.5 -26t-4.5 -24t-7 -25.5t-10.5 -22t-14.5 -22t-18.5 -18.5q-20 -12 -25.5 -24.5t-3.5 -33.5q-2 -25 4.5 -37t24.5 -21q212 -111 262 -146v-88h-816v88q35 24 108 60.5
t128 61.5l55 24q29 15 29 58q3 33 -29 58q-43 34 -65 93.5t-22 111.5v146q-1 23 16 53.5t44.5 57.5t66.5 45.5t77 18.5zM512 880q-50 0 -99.5 -22t-84.5 -56t-57 -75.5t-22 -79.5v-146q0 -63 28.5 -139.5t88.5 -123.5l-258 -133q-7 -3 -17.5 -8.5t-28 -22t-17.5 -31.5v-93
q0 -26 18.5 -44t44.5 -18h808q26 0 44.5 18t18.5 44v93q0 8 -3.5 15t-9 13t-12.5 11.5t-13.5 9.5t-12 7t-8.5 5l-4 1l-229 133q25 19 42.5 47t26 52.5t13 59t5.5 53.5t1 51v146q0 38 -22 79.5t-57 75.5t-84.5 56t-99.5 22z" />
    <glyph glyph-name="uniE61F" unicode="&#xe61f;" 
d="M159.5 527q-59.5 0 -101.5 -42t-42 -101t42 -101t101.5 -42t101.5 42t42 101t-42 101t-101.5 42zM159.5 298q-35.5 0 -61 25t-25.5 61t25.5 61t61 25t60.5 -25t25 -61t-25 -61t-60.5 -25zM512 527q-59 0 -101 -42t-42 -101t42 -101t101 -42t101 42t42 101t-42 101
t-101 42zM512 298q-36 0 -61 25t-25 61t25 61t61 25t61 -25t25 -61t-25 -61t-61 -25zM864.5 527q-59.5 0 -101.5 -42t-42 -101t42 -101t101.5 -42t101.5 42t42 101t-42 101t-101.5 42zM864.5 298q-35.5 0 -60.5 25t-25 61t25 61t60.5 25t61 -25t25.5 -61t-25.5 -61t-61 -25z
" />
    <glyph glyph-name="uniE620" unicode="&#xe620;" 
d="M912 274q-47 -5 -107.5 -46t-114 -98t-97 -114t-67.5 -100q-27 42 -43.5 64t-43 49.5t-58.5 46t-76 32.5l111 56l110 -166q6 13 17.5 34.5t49 80.5t76.5 109.5t98 105.5t117 84q-2 -54 3.5 -79.5t24.5 -58.5zM774 660q0 49 -16 65t-67 17h-110v55h165q31 0 57 -26.5
t26 -55.5v-276l-55 -55v276zM636 687q9 0 14.5 -1.5t8 -7t3 -8t2.5 -10.5v-28h-386v28q-1 14 8.5 21t18.5 6h83q2 50 0 110q-1 30 21.5 56.5t61.5 26.5q41 0 61.5 -21.5t20.5 -61.5v-110h83zM470.5 797q-11.5 0 -19.5 -8t-8 -19.5t8 -19.5t19.5 -8t19.5 8t8 19.5t-8 19.5
t-19.5 8zM168 660v-634q-1 -46 17.5 -65t64.5 -18h193q12 -6 20.5 -13.5t11.5 -12t8.5 -15t7.5 -14.5h-296q-32 0 -57.5 26t-25.5 58v743q0 31 25.5 56.5t57.5 25.5h165v-55h-110q-39 0 -60.5 -23.5t-21.5 -58.5zM719 -57q24 0 39.5 19.5t15.5 35.5v138q2 12 10 21t24 19.5
t21 14.5v-220q0 -31 -26 -57t-57 -26h-175q0 9 5.5 17.5t16.5 20t15 17.5h111z" />
    <glyph glyph-name="uniE621" unicode="&#xe621;" 
d="M37 588l460 -251q7 -4 15 -4t15 4l465 251q16 8 16 27t-17 27l-460 234q-14 7 -28 0l-465 -233q-16 -9 -16.5 -27.5t15.5 -27.5zM517 814l393 -200l-398 -215l-393 215zM986 415l-92 46l-67 -35l78 -40l-398 -214l-393 214l82 42l-66 36l-97 -49q-17 -9 -17 -27.5
t16 -27.5l460 -251q7 -4 15 -4t15 4l464 251q17 9 16.5 27.5t-16.5 27.5zM986 198l-87 43l-67 -36l73 -36l-398 -214l-393 214l77 35l-67 36l-91 -42q-17 -9 -17 -27.5t16 -27.5l460 -251q7 -4 15 -4t15 4l464 251q17 9 16.5 27.5t-16.5 27.5z" />
    <glyph glyph-name="uniE622" unicode="&#xe622;" 
d="M739 71l-199 120q82 65 82 221v137q0 65 -66.5 115t-153 50t-153.5 -50t-67 -115v-137q0 -155 82 -221l-195 -120l-6 -3q-4 -2 -14 -9t-17.5 -15t-12 -20.5t-2.5 -25.5v-57q0 -22 15 -37.5t37 -15.5h670q21 0 35 16.5t14 38.5v55q0 16 -5.5 29t-12 20.5t-14.5 14t-11.5 8
t-5.5 1.5zM733 -57h-661v55q24 17 79 51t98 61l43 26q14 8 20.5 20t7.5 35q-1 5 -1 11.5t-0.5 8.5t-1.5 5.5t-4 7t-7.5 8t-13.5 12.5q-31 27 -43 74t-12 94v137q0 36 53 75t115 39q64 0 113 -38.5t49 -75.5v-137q0 -25 -1 -42t-6 -42t-17 -46t-31 -36q-16 -16 -21 -25.5
t-6 -29.5v-15q0 -7 1 -13.5t7.5 -13.5t18.5 -13q179 -103 221 -138v-55zM956 225l-196 104q88 69 83 248v110q0 67 -68.5 130t-152.5 63q-55 0 -109 -24t-83 -59q18 -4 28 -9.5t27 -17.5q27 21 66.5 38t70.5 17q62 0 114 -49.5t52 -88.5v-110q2 -71 -8.5 -117.5t-46.5 -75.5
q-31 -24 -28 -55q0 -3 0.5 -11.5t1 -12.5t3 -10t8.5 -11t15 -10q179 -92 220 -110v-55h-138q4 -3 7 -6t5.5 -7t4 -6.5t3.5 -7.5t2.5 -7.5t2.5 -10t3 -10.5h110q23 0 39 10.5t16 31.5v77q0 14 -13 27t-26 19z" />
    <glyph glyph-name="uniE623" unicode="&#xe623;" 
d="M924 -112h-634q-20 0 -31 11t-11 31l2 96h-138q-55 -1 -55 40v772q0 20 11.5 31t31.5 11h634q40 0 40 -55v-110h138q31 0 43 -11.5t12 -43.5v-730q0 -20 -11.5 -31t-31.5 -11zM719 804q0 21 -22 21h-563q-22 0 -22 -21v-702q0 -21 22 -21h563q22 0 22 21v702zM912 632
q0 13 -8.5 20.5t-19.5 7.5h-110v-579q-1 -30 -12.5 -42.5t-42.5 -12.5h-414v-55q0 -10 9 -19t19 -9h551q10 0 19 9t9 19v661zM223 301h385v-55h-385v55zM223 494h385v-55h-385v55zM223 687h385v-55h-385v55z" />
    <glyph glyph-name="uniE624" unicode="&#xe624;" 
d="M512 880q-135 0 -249 -66.5t-180.5 -180.5t-66.5 -249t66.5 -249t180.5 -180.5t249 -66.5t249 66.5t180.5 180.5t66.5 249t-66.5 249t-180.5 180.5t-249 66.5zM512 -71q-92 0 -176.5 36t-145.5 97t-97 145.5t-36 176.5t36 176.5t97 145.5t145.5 97t176.5 36t176.5 -36
t145.5 -97t97 -145.5t36 -176.5t-36 -176.5t-97 -145.5t-145.5 -97t-176.5 -36zM374 499q-9 7 -20 6.5t-18 -7.5q-9 -9 24 -36q2 -1 3 -2q37 -30 37 -74.5t-37 -74.5q-2 -2 -11 -6t-16 -8.5t-7 -7.5q0 -9 7 -16t22 -6.5t24 7.5q56 44 56 111q0 63 -64 114zM475 572
q-9 7 -19 9t-19 -4q-12 -11 1 -24q40 -31 66.5 -77.5t26.5 -90.5q0 -82 -75 -149l-8 -6q-8 -7 -13.5 -12t-5.5 -7q0 -10 8 -17q9 -6 19 -4t19 9q93 83 93 186.5t-93 186.5zM586 646q-31 29 -48 10q-4 -4 -4.5 -7.5t3 -8t5 -6t7.5 -6.5q58 -54 95 -117t37 -126
q0 -118 -113 -223q-2 -2 -8 -7t-8 -7t-4.5 -6.5t-2 -8.5t3.5 -8q8 -7 19 -7t18 7q133 122 133 260.5t-133 260.5z" />
    <glyph glyph-name="uniE625" unicode="&#xe625;" 
d="M946 715h-868q-26 0 -44 -18.5t-18 -43.5v-538q0 -25 18 -43.5t44 -18.5h868q26 0 44 18.5t18 43.5v538q0 25 -18 43.5t-44 18.5zM967 136q0 -17 -12.5 -29t-29.5 -12h-826q-17 0 -29.5 12t-12.5 29v496q0 17 12.5 29t29.5 12h826q17 0 29.5 -12t12.5 -29v-496zM471 405
h-104v-104h104v104zM657 549h-103l-1 -103h104v103zM285 549h-104v-103h104v103zM471 549h-103l-1 -103h104v103zM181 198h662v41h-662v-41zM285 405h-104v-104h104v104zM739 446h104v103h-104v-103zM553 301h290v104h-290v-104z" />
    <glyph glyph-name="uniE626" unicode="&#xe626;" 
d="M947 430l-349 348q-35 36 -86 36t-86 -36l-349 -348q-12 -12 -12 -29t12 -29t29 -12t29 12l8 8v-324q0 -42 29.5 -72t71.5 -30h91q42 0 72 30t30 72v110q0 8 6 14t14 6h171q17 0 29 12t12 29t-12 28.5t-29 11.5h-171q-42 0 -72 -29.5t-30 -71.5v-110q0 -9 -6 -15t-14 -6
h-91q-8 0 -14 6t-6 15v405l259 260q12 12 29 12t29 -12l348 -349q12 -12 29 -12t29 12t12 29t-12 29zM841 353q-17 0 -29 -12t-12 -29v-256q0 -9 -6 -15t-14 -6h-152q-17 0 -29 -11.5t-12 -28.5t12 -29t29 -12h152q42 0 71.5 30t29.5 72v256q0 17 -11.5 29t-28.5 12z" />
    <glyph glyph-name="uniE627" unicode="&#xe627;" 
d="M816 732h-84v8q0 39 -26 65q-34 35 -84 23l-433 -99q-40 -10 -64.5 -45.5t-18.5 -75.5l74 -529q5 -39 36 -69t70 -35l332 -37q6 -1 11 -1q40 0 68 28t28 68l6 618h85q9 0 15.5 -6.5t6.5 -15.5v-582q0 -17 12 -28.5t28.5 -11.5t28.5 11.5t12 28.5v582q0 43 -30 73t-73 30z
M644 34q0 -8 -5 -12t-12 -3l-332 37q-12 1 -22.5 11.5t-12.5 22.5l-74 529q-1 10 5.5 19t15.5 11l433 100q2 1 4 1q3 0 4 -2q2 -2 2 -7zM547 484q-17 0 -29 -11.5t-12 -28.5v-83q0 -17 12 -29t29 -12t29 12t12 29v83q0 17 -12 28.5t-29 11.5z" />
    <glyph glyph-name="uniE628" unicode="&#xe628;" 
d="M918 -44q-14 0 -25 8.5t-14 22.5q-18 77 -87 86q-73 10 -135.5 41.5t-79.5 81.5q-21 60 33 116q80 84 80 236q0 7 -0.5 16.5t-4.5 28t-10.5 35.5t-20 36.5t-31.5 33.5t-47 23.5t-64 9.5t-64 -9.5t-47 -23.5t-31.5 -33.5t-20 -36.5t-10.5 -35.5t-4.5 -28t-0.5 -16.5
q0 -152 80 -236q54 -56 33 -116q-17 -50 -79.5 -81.5t-135.5 -41.5q-69 -9 -87 -86q-3 -16 -17.5 -25t-31 -5t-25 18t-5.5 31q5 19 13.5 38.5t25.5 44t47 42.5t70 23q57 7 99.5 28t49.5 41q4 13 -15 33q-50 52 -76.5 127.5t-26.5 164.5q0 30 7 63t25.5 69.5t46.5 65
t74.5 47.5t105.5 19t105.5 -19t74.5 -47.5t46.5 -65t25.5 -69.5t7 -63q0 -89 -26.5 -164.5t-76.5 -127.5q-19 -20 -15 -33q7 -20 49.5 -41t99.5 -28q40 -5 70 -23t47 -42.5t25.5 -44t13.5 -38.5q3 -17 -5.5 -31t-25.5 -18q-4 -1 -9 -1z" />
    <glyph glyph-name="uniE629" unicode="&#xe629;" 
d="M919 377l38 192q7 34 -14 59.5t-56 25.5h-487q-16 0 -27.5 -11.5t-11.5 -28t11.5 -28t27.5 -11.5h479l-37 -182q0 -4 -4.5 -7.5t-7.5 -4.5l-504 -54l-50 379q-4 31 -28 52t-55 21h-89q-16 0 -27.5 -11.5t-11.5 -27.5t11.5 -27.5t27.5 -11.5h89q5 0 5 -5l63 -477
q4 -30 28 -51t55 -21h547q16 0 27.5 11t11.5 27.5t-11.5 28t-27.5 11.5h-547q-5 0 -6 5l-2 19l502 54q29 4 52 25t29 49zM803 34zM758 33.5q0 18.5 13 31.5t31.5 13t32 -13t13.5 -31.5t-13.5 -31.5t-32 -13t-31.5 13t-13 31.5zM374 34zM329 33.5q0 18.5 13 31.5t31.5 13
t32 -13t13.5 -31.5t-13.5 -31.5t-32 -13t-31.5 13t-13 31.5z" />
    <glyph glyph-name="uniE62A" unicode="&#xe62a;" 
d="M664 385q0 -58 -40 -99l-182 -184q-14 -14 -33.5 -14t-33 13.5t-13.5 33t13 33.5l183 184q13 13 13 33q0 19 -14 33l-184 182q-13 14 -13.5 33t13.5 33t33 14t33 -14l184 -182q41 -41 41 -99z" />
    <glyph glyph-name="uniE62B" unicode="&#xe62b;" 
d="M346 440h-168q-46 0 -79 32.5t-33 79.5v167q0 46 33 79t79 33h168q46 0 78.5 -33t32.5 -79v-167q0 -47 -32.5 -79.5t-78.5 -32.5zM178 756q-15 0 -26 -11t-11 -26v-167q0 -16 11 -27t26 -11h168q15 0 26 11t11 27v167q0 15 -11 26t-26 11h-168zM346 -63h-168
q-46 0 -79 33t-33 79v167q0 47 33 79.5t79 32.5h168q46 0 78.5 -32.5t32.5 -79.5v-167q0 -46 -32.5 -79t-78.5 -33zM178 254q-15 0 -26 -11t-11 -27v-167q0 -15 11 -26t26 -11h168q15 0 26 11t11 26v167q0 16 -11 27t-26 11h-168zM848 440h-167q-47 0 -79.5 32.5t-32.5 79.5
v167q0 46 32.5 79t79.5 33h167q46 0 79 -33t33 -79v-167q0 -47 -33 -79.5t-79 -32.5zM681 756q-16 0 -27 -11t-11 -26v-167q0 -16 11 -27t27 -11h167q15 0 26 11t11 27v167q0 15 -11 26t-26 11h-167zM812 -63h-131q-47 0 -79.5 33t-32.5 79v167q0 47 32.5 79.5t79.5 32.5
h167q46 0 79 -32.5t33 -79.5v-112q0 -15 -11 -26t-26.5 -11t-26.5 11t-11 26v112q0 16 -11 27t-26 11h-167q-16 0 -27 -11t-11 -27v-167q0 -15 11 -26t27 -11h131q15 0 26 -11t11 -26.5t-11 -26.5t-26 -11z" />
    <glyph glyph-name="uniE62C" unicode="&#xe62c;" 
d="M914 705h-316q-15 0 -26 11t-11 26.5t11 26.5t26 11h316q16 0 27 -11t11 -26.5t-11 -26.5t-27 -11zM914 482h-316q-15 0 -26 11t-11 26.5t11 26t26 10.5h316q16 0 27 -10.5t11 -26t-11 -26.5t-27 -11zM921 205h-316q-15 0 -26 11t-11 26.5t11 26.5t26 11h316q16 0 27 -11
t11 -26.5t-11 -26.5t-27 -11zM921 -18h-316q-15 0 -26 11t-11 26t11 26t26 11h316q16 0 27 -11t11 -26t-11 -26t-27 -11zM344 438h-167q-46 0 -79 32.5t-33 78.5v168q0 46 33 79t79 33h167q47 0 79.5 -33t32.5 -79v-168q0 -46 -32.5 -78.5t-79.5 -32.5zM177 754
q-15 0 -26 -11t-11 -26v-168q0 -15 11 -26t26 -11h167q16 0 27 11t11 26v168q0 15 -11 26t-27 11h-167zM344 -65h-167q-46 0 -79 33t-33 79v167q0 47 33 79.5t79 32.5h167q47 0 79.5 -32.5t32.5 -79.5v-167q0 -46 -32.5 -79t-79.5 -33zM177 252q-15 0 -26 -11t-11 -27v-167
q0 -16 11 -26.5t26 -10.5h167q16 0 27 10.5t11 26.5v167q0 16 -11 27t-27 11h-167z" />
    <glyph glyph-name="uniE62D" unicode="&#xe62d;" 
d="M512 33q-129 0 -220.5 91.5t-91.5 220.5q0 14 10.5 24t24.5 10t24.5 -10t10.5 -24q0 -100 71 -171.5t171 -71.5t171 71.5t71 171.5t-71 171t-171 71q-82 0 -146 -49q-10 -7 -22.5 -6.5t-21.5 8.5t-11 20t4 23l78 135q7 12 20.5 16t26 -3.5t16.5 -21.5t-3 -26l-22 -37
q40 11 81 11q129 0 220.5 -91.5t91.5 -220.5t-91.5 -220.5t-220.5 -91.5z" />
    <glyph glyph-name="uniE62E" unicode="&#xe62e;" 
d="M804 326h-584q-25 0 -42 17t-17 41t17 41t42 17h584q25 0 42 -17t17 -41t-17 -41t-42 -17z" />
    <glyph glyph-name="uniE62F" unicode="&#xe62f;" 
d="M804 442h-234v234q0 25 -17 42t-41 17t-41 -17t-17 -42v-234h-234q-25 0 -42 -17t-17 -41t17 -41t42 -17h234v-234q0 -25 17 -42t41 -17t41 17t17 42v234h234q25 0 42 17t17 41t-17 41t-42 17z" />
    <glyph glyph-name="uniE630" unicode="&#xe630;" 
d="M330.5 202.5q59.5 -59.5 110.5 -103t107 -82.5t106 -57.5t101 -22t100.5 18t94.5 67.5q15 14 4.5 45t-37.5 61.5t-61.5 56.5t-66.5 32t-54 -12q-27 -27 -43 -42.5t-34 -27t-27.5 -15.5t-25 -1t-24.5 9.5t-28.5 24t-34 33.5t-44 47t-55.5 57t-56.5 55.5t-47 44t-34 34
t-24 28t-9.5 24.5t1 25.5t15.5 27.5t27 34t42.5 43q32 32 -3.5 96t-95 104t-84.5 15q-46 -46 -67.5 -95t-18 -100t22 -101.5t57.5 -106.5t82.5 -106.5t103 -110z" />
    <glyph glyph-name="uniE631" unicode="&#xe631;" 
d="M512 831q-98 0 -180.5 -48t-130.5 -131t-48 -180q0 -61 21 -125.5t51 -117t72 -106t76.5 -89.5t70.5 -69q30 -27 67.5 -27.5t66.5 26.5q37 33 71 68.5t76.5 89t73 106.5t51.5 118t21 126q0 97 -48 180t-130.5 131t-180.5 48zM512 344q-53 0 -90.5 37.5t-37.5 90.5
t37.5 90.5t90.5 37.5t90.5 -37.5t37.5 -90.5t-37.5 -90.5t-90.5 -37.5z" />
    <glyph glyph-name="uniE632" unicode="&#xe632;" 
d="M553 565q-6 -6 -6 -14.5t6 -15t15 -6.5t15 6.5t6 17t-6 16.5q-7 6 -15 4.5t-15 -8.5zM512 831q-89 0 -154 -9t-116.5 -30t-84 -53.5t-53.5 -84t-30 -116.5t-9 -154t9 -154t30 -116.5t53.5 -84t84 -53.5t116.5 -30t154 -9t154 9t116.5 30t84 53.5t53.5 84t30 116.5t9 154
t-9 154t-30 116.5t-53.5 84t-84 53.5t-116.5 30t-154 9zM375 224l-138 138q-8 8 -8 19.5t8 19.5l217 217q20 20 48 22l132 7q11 0 19 -7.5t7 -19.5l-7 -132q-1 -27 -21 -47l-217 -217q-8 -9 -19.5 -9t-20.5 9zM761 415l-131 -278q-5 -10 -15.5 -14t-21.5 1l-149 70h1
l217 217q13 14 22.5 35t10.5 40l7 126q19 0 24 -18l38 -127q9 -26 -3 -52z" />
    <glyph glyph-name="uniE633" unicode="&#xe633;" 
d="M859 779h-694q-42 0 -71 -29t-29 -70v-645q0 -28 13 -42t30.5 -12.5t33.5 13.5q24 20 150 116q31 24 88 24h479q42 0 71 29t29 70v447q0 41 -29 70t-71 29zM264 395q-26 0 -44 18t-18 43.5t18 44t44 18.5t44 -18.5t18 -44t-18 -43.5t-44 -18zM512 395q-26 0 -44 18
t-18 43.5t18 44t44 18.5t44 -18.5t18 -44t-18 -43.5t-44 -18zM760 395q-26 0 -44 18t-18 43.5t18 44t44 18.5t44 -18.5t18 -44t-18 -43.5t-44 -18z" />
    <glyph glyph-name="uniE634" unicode="&#xe634;" 
d="M949 602q-18 15 -205 164q-10 8 -16 5.5t-6 -14.5v-73q0 -9 -5 -14.5t-13 -5.5q-66 -2 -122 -15t-95.5 -33.5t-72 -48.5t-52.5 -57t-35 -63t-22 -62t-11 -57q-3 -20 1.5 -28t11.5 -3t13 19q15 27 34 51.5t52 51.5t73 46.5t99 33t128 15.5q16 0 16 -18v-68q0 -34 25 -14
q192 153 202 161q17 14 0 27zM797 382v-208q0 -51 -35.5 -86.5t-86.5 -35.5h-431q-51 0 -86.5 35.5t-35.5 86.5v281q0 51 35.5 86.5t86.5 35.5h100q20 0 29 14t1.5 28.5t-26.5 14.5h-104q-74 0 -126.5 -52.5t-52.5 -126.5v-281q0 -74 52.5 -126t126.5 -52h431q74 0 126.5 52
t52.5 126v207q0 19 -14.5 26t-28.5 -0.5t-14 -24.5z" />
    <glyph glyph-name="uniE635" unicode="&#xe635;" 
d="M609 782h279v23q0 26 -31 26h-268q-38 0 -60 -23q-14 -14 -430 -429q-11 -11 -11.5 -26.5t6.5 -20.5l17 -17q441 442 452 452q17 15 46 15zM886 732h-236q-21 0 -46.5 -11t-40.5 -25l-406 -407q-14 -14 -14 -35.5t14 -35.5l266 -266q15 -15 36 -15t36 15l406 406
q15 15 25.5 40.5t10.5 46.5v236q0 21 -15 36t-36 15zM783.5 537q-19.5 0 -32.5 13.5t-13 32.5t13 32.5t32.5 13.5t33 -13.5t13.5 -32.5t-13.5 -32.5t-33 -13.5z" />
    <glyph glyph-name="uniE636" unicode="&#xe636;" 
d="M650 320l105 105q17 17 20 41l11 72q3 24 20 41l104 103q17 18 18 42l6 80q1 10 -6 17t-17 6l-80 -5q-25 -2 -42 -19l-311 -311q-17 -17 -43 -22.5t-43 -3.5q-61 8 -119.5 -11.5t-103.5 -64.5q-79 -78 -79 -189t78.5 -189t189.5 -78t190 78q44 45 63.5 103t12.5 119
q-2 18 3.5 43.5t22.5 42.5zM254.5 97.5q-28.5 28.5 -28.5 69t28.5 69t69 28.5t69 -28.5t28.5 -69t-28.5 -69t-69 -28.5t-69 28.5z" />
    <glyph glyph-name="uniE637" unicode="&#xe637;" 
d="M512 831q-89 0 -154 -9t-116.5 -30t-84 -53.5t-53.5 -84t-30 -116.5t-9 -154t9 -154t30 -116.5t53.5 -84t84 -53.5t116.5 -30t154 -9t154 9t116.5 30t84 53.5t53.5 84t30 116.5t9 154t-9 154t-30 116.5t-53.5 84t-84 53.5t-116.5 30t-154 9zM286 289q37 72 29 114.5
t-60 77.5q44 2 83 -18.5t68 -56.5q-12 -23 -19 -40q-47 -107 10 -194q0 -1 1.5 -3t2.5 -3q-26 -13 -54.5 -7.5t-46.5 25t-24.5 47t10.5 58.5zM546 105q-52 0 -96 34t-60.5 90.5t12.5 130.5q16 34 44 80t46 77t30.5 67t3 69.5t-42.5 65.5q5 -1 13.5 -3.5t30 -13t38 -24
t30.5 -37.5t15 -53q1 -33 -7.5 -71t-17 -64t-10 -67t13.5 -81q-21 76 12 140.5t108 84.5q-28 -30 -36.5 -56t-0.5 -47.5t20.5 -41.5t24.5 -48t13 -57q1 -78 -53 -126.5t-131 -48.5z" />
    <glyph glyph-name="uniE638" unicode="&#xe638;" 
d="M959 483v124q-41 0 -70.5 29.5t-29.5 70.5h-496q0 -11 -7 -18t-17.5 -7t-18 7t-7.5 18h-148q0 -41 -29.5 -70.5t-70.5 -29.5v-124q41 0 70.5 -29t29.5 -70t-29.5 -70t-70.5 -29v-124q41 0 70.5 -29.5t29.5 -70.5h148q0 11 7.5 18t18 7t17.5 -7t7 -18h496q0 41 29.5 70.5
t70.5 29.5v124q-41 0 -70.5 29t-29.5 70t29.5 70t70.5 29zM363 185q0 -10 -7 -17t-17.5 -7t-18 7t-7.5 17v50q0 10 7.5 17.5t18 7.5t17.5 -7.5t7 -17.5v-50zM363 359q0 -10 -7 -17.5t-17.5 -7.5t-18 7.5t-7.5 17.5v50q0 10 7.5 17.5t18 7.5t17.5 -7.5t7 -17.5v-50zM363 533
q0 -10 -7 -17.5t-17.5 -7.5t-18 7.5t-7.5 17.5v50q0 10 7.5 17t18 7t17.5 -7t7 -17v-50z" />
    <glyph glyph-name="uniE639" unicode="&#xe639;" 
d="M512 831q-91 0 -173.5 -35.5t-142.5 -95.5t-95.5 -142.5t-35.5 -173.5t35.5 -173.5t95.5 -142.5t142.5 -95.5t173.5 -35.5t173.5 35.5t142.5 95.5t95.5 142.5t35.5 173.5t-35.5 173.5t-95.5 142.5t-142.5 95.5t-173.5 35.5zM548 165q-16 -5 -16 -21v-35q0 -23 -26 -23
q-25 0 -25 22v35q0 8 -6.5 12.5t-12.5 4.5q-46 4 -84 20q-8 3 -12.5 13.5t0.5 23.5q11 20 34 11q44 -19 93 -19q43 0 70 20t27 51q0 29 -22.5 49t-69.5 37q-68 24 -101.5 52.5t-33.5 73.5q0 42 29 72.5t79 41.5q15 3 15 21v34q0 8 6.5 14.5t19.5 6.5q25 0 25 -20v-35
q0 -7 5 -11.5t12 -5.5q36 -3 65 -13q22 -9 14 -33q-8 -25 -35 -15q-36 14 -78 14q-44 0 -65.5 -19t-21.5 -44q0 -27 23 -44.5t79 -37.5q64 -24 95 -55t31 -78q0 -42 -30 -75.5t-83 -44.5z" />
    <glyph glyph-name="uniE63A" unicode="&#xe63a;" 
d="M161 469h198l-99 179zM386 486l99 179h-198zM413 469h198l-99 179zM638 486l99 179h-198zM649 438l-101 -326l305 326h-204zM764 648l-99 -179h198zM375 438h-204l305 -326zM616 438h-209l105 -335z" />
    <glyph glyph-name="uniE63B" unicode="&#xe63b;" 
d="M859 136h-99q-31 0 -52.5 -22t-21.5 -53v-124zM785 831h-546q-31 0 -52.5 -22t-21.5 -53v-744q0 -31 21.5 -53t52.5 -22h397v124q0 52 36.5 88t87.5 36h99v571q0 31 -21.5 53t-52.5 22zM438 99h-149q-11 0 -18 7t-7 17.5t7 17.5t18 7h149q10 0 17 -7t7 -17.5t-7 -17.5
t-17 -7zM735 272h-446q-11 0 -18 7.5t-7 17.5t7 17.5t18 7.5h446q11 0 18 -7.5t7 -17.5t-7 -17.5t-18 -7.5zM735 446h-446q-11 0 -18 7.5t-7 17.5t7 17.5t18 7.5h446q11 0 18 -7.5t7 -17.5t-7 -17.5t-18 -7.5zM735 620h-446q-11 0 -18 7t-7 17.5t7 17.5t18 7h446q11 0 18 -7
t7 -17.5t-7 -17.5t-18 -7z" />
    <glyph glyph-name="uniE63C" unicode="&#xe63c;" 
d="M499 687q6 18 14 18t14 -18l4 -13q6 -17 23 -30t36 -13h13q19 0 21.5 -7.5t-12.5 -18.5l-11 -8q-15 -11 -21.5 -31.5t-1.5 -37.5l4 -13q6 -17 -0.5 -22t-21.5 6l-11 8q-15 11 -36.5 11t-36.5 -11l-10 -8q-15 -11 -22 -6t-1 22l4 13q6 17 -0.5 37.5t-21.5 31.5l-11 8
q-15 11 -12.5 18.5t21.5 7.5h13q18 0 35.5 13t23.5 30zM779 -63h-534q-43 0 -73.5 30.5t-30.5 73.5v686q0 43 30.5 73.5t73.5 30.5h534q43 0 73.5 -30.5t30.5 -73.5v-686q0 -43 -30.5 -73.5t-73.5 -30.5zM245 775q-19 0 -33.5 -14t-14.5 -34v-686q0 -20 14.5 -34t33.5 -14
h534q19 0 33.5 14t14.5 34v686q0 20 -14.5 34t-33.5 14h-534zM698 348h-372q-12 0 -20 8t-8 20t8 20t20 8h372q12 0 20 -8t8 -20t-8 -20t-20 -8zM698 218h-372q-12 0 -20 8t-8 19.5t8 20t20 8.5h372q12 0 20 -8.5t8 -20t-8 -19.5t-20 -8zM661 87h-298q-11 0 -19.5 8.5
t-8.5 20t8.5 19.5t19.5 8h298q11 0 19.5 -8t8.5 -19.5t-8.5 -20t-19.5 -8.5z" />
    <glyph glyph-name="uniE63D" unicode="&#xe63d;" 
d="M512 735q-95 0 -176 -47t-128 -128t-47 -176t47 -176t128 -128t176 -47t176 47t128 128t47 176t-47 176t-128 128t-176 47zM671 267q8 -9 8 -21t-8.5 -20.5t-20.5 -8.5t-21 8l-117 118l-117 -118q-9 -8 -21 -8t-20.5 8.5t-8.5 20.5t8 21l118 117l-118 117q-8 9 -8 21
t8.5 20.5t20.5 8.5t21 -8l117 -118l117 118q9 8 21 8t20.5 -8.5t8.5 -20.5t-8 -21l-118 -117z" />
    <glyph glyph-name="uniE63E" unicode="&#xe63e;" 
d="M512 735q-95 0 -176 -47t-128 -128t-47 -176t47 -176t128 -128t176 -47t176 47t128 128t47 176t-47 176t-128 128t-176 47zM718 459l-193 -193q-20 -20 -48 -20t-48 20l-110 110q-9 9 -9 21t8.5 20.5t20.5 8.5t21 -8l110 -111q7 -7 14 0l193 193q9 9 21 9t20.5 -8.5
t8.5 -20.5t-9 -21z" />
    <glyph glyph-name="uniE63F" unicode="&#xe63f;" 
d="M957 58q-4 16 -11.5 31.5t-22 34.5t-40.5 33t-59 18q-110 13 -173 61.5t0 108.5q51 48 76 117t25 146q0 25 -6 51.5t-22.5 58t-42 56t-69.5 41t-100 16.5t-100 -16.5t-69.5 -41t-42 -56t-22.5 -58t-6 -51.5q0 -77 25 -146t76 -117q63 -60 0 -108.5t-173 -61.5
q-33 -4 -59 -18t-40.5 -33t-22 -34.5t-11.5 -31.5q-5 -20 3 -31t27 -19q57 -25 172 -48t243 -23t243 23t172 48q19 8 27 19t3 31z" />
    <glyph glyph-name="uniE640" unicode="&#xe640;" 
d="M753 730q-57 0 -90 -47q103 -50 157 -151q43 33 43 87q0 46 -32.5 78.5t-77.5 32.5zM362 683q-33 48 -91 48q-45 0 -77.5 -32.5t-32.5 -78.5q0 -54 44 -87q53 101 157 150zM512 668q-124 0 -211 -87.5t-87 -211.5q0 -111 73 -196l-50 -51q-15 -14 -15 -34.5t14.5 -35.5
t35 -15t35.5 15l58 58q68 -39 146.5 -39t147.5 39l58 -58q15 -15 35.5 -15t35 15t14.5 35.5t-15 34.5l-51 51q74 85 74 196q0 124 -87 211.5t-211 87.5zM494 352q-3 3 -5 8t-2 9v151q0 10 7.5 17.5t17.5 7.5t17.5 -7.5t7.5 -17.5v-140l100 -101q7 -7 7 -17t-7 -17.5
t-17.5 -7.5t-17.5 7z" />
    <glyph glyph-name="uniE641" unicode="&#xe641;" 
d="M493 317q39 36 64 94t25 111q0 78 -51.5 126t-127.5 48t-128 -48t-52 -126q0 -53 25 -111t65 -94q70 -65 -98 -104q-71 -17 -150 -23v-77q5 -3 14 -8.5t40.5 -19t67.5 -24.5t94.5 -19.5t121.5 -8.5q193 0 320 70q17 9 17 10v77q-22 -1 -106 17q-167 34 -158 84
q3 12 17 26zM744 432q34 32 55.5 82t21.5 97q0 67 -44.5 109t-110.5 42q-79 0 -124 -56q44 -31 68.5 -79t24.5 -105q0 -61 -25.5 -124.5t-68.5 -108.5q28 -13 86.5 -26.5t118.5 -19.5l47 -6v-41q49 9 90.5 23.5t58.5 25.5l17 10v67q-137 14 -199 48q-52 28 -16 62z" />
    <glyph glyph-name="uniE642" unicode="&#xe642;" 
d="M652 651q-84 84 -203.5 84t-203.5 -84t-84 -203.5t84 -203.5q77 -77 185.5 -83.5t192.5 58.5l1 -1l1 -1l172 -173q12 -11 28 -11t27 11t11 27t-11 28l-173 172l-1 1l-1 1q65 84 58.5 192.5t-83.5 185.5zM625 271q-73 -73 -176.5 -73t-176.5 73t-73 176.5t73 176.5
t176.5 73t176.5 -73t73 -176.5t-73 -176.5z" />
    <glyph glyph-name="uniE643" unicode="&#xe643;" 
d="M658 -63h-292q-38 0 -67 26.5t-32 64.5l-56 644q-1 13 7 23t21 11t23 -7.5t11 -20.5l56 -645q1 -13 12 -23t25 -10h292q14 0 25 10t12 23l50 571q1 13 11 21t22.5 7t21 -11t7.5 -22l-50 -571q-3 -38 -32 -64.5t-67 -26.5zM865 664h-706q-13 0 -22 9.5t-9 22.5t9 22t22 9
h706q13 0 22 -9t9 -22t-9 -22.5t-22 -9.5zM647 696h-62v52q0 7 -9.5 13.5t-21.5 6.5h-84q-12 0 -21.5 -6.5t-9.5 -13.5v-52h-62v52q0 34 27.5 58.5t65.5 24.5h84q38 0 65.5 -24.5t27.5 -58.5v-52zM450 124q-13 0 -22 8.5t-9 21.5l-21 353q-1 13 7.5 22.5t21.5 10.5t22.5 -8
t10.5 -22l21 -353q1 -13 -8 -22.5t-22 -10.5h-1zM574 124h-1q-13 1 -22 10.5t-8 22.5l21 353q1 13 10.5 22t22.5 8t21.5 -10.5t7.5 -22.5l-21 -353q0 -13 -9 -21.5t-22 -8.5z" />
    <glyph glyph-name="uniE644" unicode="&#xe644;" 
d="M870 110q42 30 65.5 72t23.5 90q0 90 -78.5 153.5t-189.5 63.5t-189.5 -63.5t-78.5 -154t78.5 -154t189.5 -63.5q33 0 65 6q9 3 22 -2q35 -18 89 -41q6 -3 8.5 -1t1.5 8q-9 43 -14 70q-2 10 7 16zM614 310q-14 0 -24 10t-10 24t10 23.5t24 9.5t23.5 -9.5t9.5 -23.5
t-9.5 -24t-23.5 -10zM789 310q-14 0 -24 10t-10 24t10 23.5t24 9.5t23.5 -9.5t9.5 -23.5t-9.5 -24t-23.5 -10zM691 523q1 0 3.5 -0.5t3.5 -0.5q-16 99 -105.5 165t-209.5 66q-131 0 -224.5 -78.5t-93.5 -189.5q0 -60 29.5 -112.5t80.5 -90.5q7 -5 5 -16q-5 -26 -13 -71
q-2 -8 1.5 -10.5t10.5 0.5q63 30 89 42q7 4 22 2q46 -12 93 -12q3 0 8 0.5t6 0.5q-7 27 -7 54q0 103 88 177t213 74zM493.5 616q17.5 0 30 -12.5t12.5 -29.5t-12.5 -29.5t-30 -12.5t-29.5 12.5t-12 29.5t12 29.5t29.5 12.5zM273 532q-17 0 -29.5 12.5t-12.5 29.5t12.5 29.5
t29.5 12.5t29.5 -12.5t12.5 -29.5t-12.5 -29.5t-29.5 -12.5z" />
    <glyph glyph-name="uniE645" unicode="&#xe645;" 
d="M512 880q-101 0 -192.5 -39.5t-158 -106t-106 -158t-39.5 -192.5t39.5 -192.5t106 -158t158 -106t192.5 -39.5t192.5 39.5t158 106t106 158t39.5 192.5t-39.5 192.5t-106 158t-158 106t-192.5 39.5zM461.5 717.5q20.5 20.5 50.5 20.5t50.5 -20.5t20.5 -50t-20.5 -50
t-50 -20.5t-50.5 20.5t-21 50t20.5 50zM661 86h-298v50h99v347h-99v50h199v-397h99v-50z" />
    <glyph glyph-name="uniE646" unicode="&#xe646;" 
d="M374.5 53q-11.5 0 -19.5 8l-331 331q-8 8 -8 19.5t8 19.5t19.5 8t19.5 -8l311 -312l587 588q8 8 19.5 8t19.5 -8t8 -19.5t-8 -19.5l-606 -607q-8 -8 -19.5 -8z" />
    <glyph glyph-name="uniE647" unicode="&#xe647;" 
d="M980 356h-870l256 -256q8 -8 8 -19.5t-8 -19.5t-19.5 -8t-19.5 8l-302 302l-1 1l-2 2v1q-3 5 -5 10q-1 2 -1 4q-2 13 8 23l1 1l302 302q8 8 19.5 8t19.5 -8t8 -19.5t-8 -19.5l-256 -256h870q12 0 20 -8.5t8 -19.5t-8 -19.5t-20 -8.5z" />
    <glyph glyph-name="uniE648" unicode="&#xe648;" 
d="M512 880q-205 0 -350.5 -145.5t-145.5 -350.5t145.5 -350.5t350.5 -145.5t350.5 145.5t145.5 350.5t-145.5 350.5t-350.5 145.5zM444 160l-231 211l38 39l192 -171l336 336l40 -40z" />
    <glyph glyph-name="uniE649" unicode="&#xe649;" 
d="M512 880q-205 0 -350.5 -145.5t-145.5 -350.5t145.5 -350.5t350.5 -145.5t350.5 145.5t145.5 350.5t-145.5 350.5t-350.5 145.5zM512 -60q-90 0 -172.5 35t-142 94.5t-94.5 142t-35 172.5t35 172.5t94.5 141.5t142 94.5t172.5 35.5t172.5 -35.5t142 -94.5t94.5 -141.5
t35 -172.5t-35 -172.5t-94.5 -142t-142 -94.5t-172.5 -35z" />
    <glyph glyph-name="uniE64A" unicode="&#xe64a;" 
d="M779 701l-38 -40l184 -153h-909v-55h964l28 27v28zM16 290v-30l229 -193l38 41l-184 152h909v55h-964z" />
    <glyph glyph-name="uniE64B" unicode="&#xe64b;" 
d="M363 549h298q33 0 33 33v166q0 18 -8 25.5t-25 7.5h-298q-33 0 -33 -33v-166q0 -33 33 -33zM396 698q0 7 5 12t12 5h198q7 0 12 -5t5 -12v-66q0 -7 -5 -12t-12 -5h-198q-7 0 -12 5t-5 12v66zM181 268q0 58 20 79t80 20h214v-132h34v132h231q44 0 63.5 -17t19.5 -65v-50
h33v83q0 33 -25 58t-58 25h-264v115h-34v-115h-264q-33 0 -58 -25t-25 -58v-83h33v33zM274 202h-219q-16 0 -27.5 -16t-11.5 -38v-106q0 -23 11.5 -39t27.5 -16h219q17 0 28.5 16t11.5 39v106q0 22 -11.5 38t-28.5 16zM247 70q0 -7 -4.5 -12t-11.5 -5h-132q-7 0 -12 5t-5 12
v49q0 7 5 12t12 5h132q7 0 11.5 -5t4.5 -12v-49zM952 202h-186q-22 -1 -39 -18.5t-17 -40.5v-97q0 -23 16.5 -40.5t39.5 -18.5h186q23 1 39.5 17.5t16.5 41.5v97q0 23 -17 41t-39 18zM942 70q0 -7 -5 -12t-12 -5h-132q-7 0 -11.5 5t-4.5 12v49q0 7 4.5 12t11.5 5h132
q7 0 12 -5t5 -12v-49zM621 202h-218q-17 0 -28.5 -16t-11.5 -39v-105q0 -23 11.5 -39t28.5 -16h218q17 0 28.5 16t11.5 39v105q0 23 -11.5 39t-28.5 16zM595 70q0 -7 -5 -12t-12 -5h-132q-7 0 -12 5t-5 12v49q0 7 5 12t12 5h132q7 0 12 -5t5 -12v-49z" />
    <glyph glyph-name="uniE64C" unicode="&#xe64c;" 
d="M874 727h-76v115q0 19 -11 28.5t-27 9.5h-646q-19 0 -30 -11t-11 -31v-797q0 -14 10.5 -26.5t27.5 -12.5h153v-76q0 -15 10 -26.5t24 -11.5h612q19 0 30 11t11 31v730q0 31 -22.5 49.5t-54.5 17.5zM226 689h420v-76h-420v76zM226 498h420v-76h-420v76zM226 231v77h420
v-77h-420zM913 -36q0 -9 -14.5 -23.5t-24.5 -14.5h-534q-38 2 -38 41v35h458q18 1 29 15.5t9 23.5q1 58 0 648h76q11 0 25 -12.5t14 -25.5v-687z" />
    <glyph glyph-name="uniE64D" unicode="&#xe64d;" 
d="M128 853q0 17 12.5 29.5t30 12.5t30 -12.5t12.5 -29.5v-938q0 -18 -12.5 -30.5t-30 -12.5t-30 12.5t-12.5 30.5v938zM469 853q0 17 12.5 29.5t30 12.5t30 -12.5t12.5 -29.5v-938q0 -18 -12.5 -30.5t-30 -12.5t-30 12.5t-12.5 30.5v938zM810 853q0 17 12.5 29.5t30 12.5
t30 -12.5t12.5 -29.5v-938q0 -18 -12.5 -30.5t-30 -12.5t-30 12.5t-12.5 30.5v938z" />
    <glyph glyph-name="uniE64E" unicode="&#xe64e;" 
d="M1008 85v-91h-186h-161v132q0 20 -7 33.5t-13 18t-21 12t-20 9.5l77 42v39q-6 5 -15 14.5t-29 42t-30 67.5q-2 1 -7.5 3t-7.5 4.5t-5.5 9t-5.5 20t-3 34.5q0 14 5.5 22t9.5 9t6 1q-1 4 -1 58q0 26 4.5 39t17.5 20v1q1 0 -0.5 3.5t1 9.5t5.5 12.5t12.5 14t22 13.5t34.5 10
t50 4v0h1q116 0 139 -85q8 -29 3 -42v-58q2 0 6 -1t10 -9t5 -22q-1 -21 -2.5 -34.5t-4.5 -20t-5 -9t-7.5 -4.5t-7.5 -3q-10 -35 -29 -66.5t-34 -44.5l-14 -13v-39l144 -66q8 0 28 -17q35 -29 35 -73zM16 -6v114q0 20 7 38t17 28.5t20.5 18t17 10.5t7.5 3l137 64v52
q-5 3 -12.5 11.5t-25.5 40t-29 70.5q-1 1 -5 3t-5.5 3t-5 3.5t-5 5.5t-4.5 8t-4 11t-3 14.5t-3 19t-1 24.5q-1 10 1 17t5.5 9.5t6.5 4t5.5 1t2.5 0.5v67q0 27 5 41.5t19 23.5q0 3 0.5 8t7 17t19.5 22t43 18t71 9h1h1q131 0 159 -92q10 -31 5 -47q0 -63 -1 -67q1 -1 3 -0.5
t5.5 -1t6.5 -4t5 -9.5t2 -17q0 -14 -1 -24.5t-3 -19t-3.5 -14.5t-4.5 -11t-4 -8t-5 -5.5t-5 -3.5t-5.5 -3t-4.5 -3q-11 -39 -28 -69.5t-28 -41.5l-12 -11v-52l138 -64l9 -3q6 -2 20.5 -11t26 -20.5t20.5 -33t9 -46.5v-98h-595z" />
    <glyph glyph-name="uniE64F" unicode="&#xe64f;" 
d="M979 316q12 0 20.5 8.5t8.5 20.5v78q0 12 -8.5 20t-20.5 8h-67q-12 0 -23 8.5t-14 19.5l-39 95q-6 10 -4 23.5t10 21.5l48 48q9 8 9 20t-9 20l-55 55q-8 9 -20 9t-20 -9l-48 -48q-8 -8 -21.5 -10t-23.5 4l-95 39q-11 3 -19 14t-8 23v67q0 12 -8.5 20.5t-20.5 8.5h-78
q-12 0 -20 -8.5t-8 -20.5v-67q0 -12 -8.5 -23t-19.5 -14l-95 -39q-10 -6 -23.5 -4t-21.5 10l-48 48q-8 9 -20 9t-20 -9l-55 -55q-9 -8 -9 -20t9 -20l48 -48q8 -8 10 -21.5t-4 -23.5l-39 -95q-3 -11 -14 -19.5t-23 -8.5h-68q-11 0 -19.5 -8t-8.5 -20v-78q0 -12 8.5 -20.5
t19.5 -8.5h68q12 0 23 -8t14 -19l39 -95q6 -10 4 -23.5t-10 -21.5l-48 -48q-9 -8 -9 -20t9 -20l55 -55q8 -9 20 -9t20 9l48 48q8 8 21.5 10t23.5 -4l95 -39q11 -3 19.5 -14t8.5 -23v-67q0 -12 8 -20.5t20 -8.5h78q12 0 20.5 8.5t8.5 20.5v67q0 12 8 23t19 14l95 39
q10 6 23.5 4t21.5 -10l48 -48q8 -9 20 -9t20 9l55 55q9 8 9 20t-9 20l-48 48q-8 8 -10 21.5t4 23.5l39 95q3 11 14 19t23 8h67zM512 196q-78 0 -133 55t-55 133t55 132.5t133 54.5t132.5 -54.5t54.5 -132.5t-54.5 -133t-132.5 -55z" />
    <glyph glyph-name="uniE650" unicode="&#xe650;" 
d="M109 -112v547h105v171q0 114 82 194t198 80h36q116 0 198 -80t82 -194v-171h105v-547h-806zM486 169l-27 -178h106l-27 178q20 8 32 25t12 38q0 29 -20.5 49t-49.5 20t-49.5 -20t-20.5 -49q0 -21 12 -38t32 -25zM705 589q0 78 -56.5 133t-136.5 55t-136.5 -55t-56.5 -133
v-154h386v154z" />
    <glyph glyph-name="uniE651" unicode="&#xe651;" 
d="M577 652l52 228h-242v-8l47 -220h143zM681 270l-384 -197l211 -185l229 199zM579 607h-145l-78 -247l263 114zM635 422l-300 -132l-48 -153l377 190z" />
    <glyph glyph-name="uniE652" unicode="&#xe652;" 
d="M512 880q-205 0 -350.5 -145.5t-145.5 -350.5t145.5 -350.5t350.5 -145.5t350.5 145.5t145.5 350.5t-145.5 350.5t-350.5 145.5zM647 329h-159q-13 0 -22 8t-9 19v271q0 14 8 23.5t19.5 9.5t19.5 -9.5t8 -23.5v-243h135q12 0 21 -8t9 -19.5t-9 -19.5t-21 -8z" />
    <glyph glyph-name="uniE653" unicode="&#xe653;" 
d="M512 880q-135 0 -249 -66.5t-180.5 -180.5t-66.5 -249t66.5 -249t180.5 -180.5t249 -66.5t249 66.5t180.5 180.5t66.5 249t-66.5 249t-180.5 180.5t-249 66.5zM512 -13q-108 0 -199.5 53t-144.5 144.5t-53 199.5t53 199.5t144.5 144.5t199.5 53t199.5 -53t144.5 -144.5
t53 -199.5t-53 -199.5t-144.5 -144.5t-199.5 -53zM683 376l-171 58l99 248l-234 -218q-11 -12 -4 -26q1 -7 7 -12l22 -19l110 -73l-99 -248l273 251q7 6 7 16q3 15 -10 23z" />
    <glyph glyph-name="uniE654" unicode="&#xe654;" 
d="M909 657h-397q-18 0 -31 23.5t-13 45.5v-1q0 33 -24 57t-57 24h-290q-34 0 -57.5 -24t-23.5 -57v-682q0 -33 23.5 -57t57.5 -24h830q34 0 57.5 24t23.5 57v515q0 50 -26.5 74.5t-72.5 24.5zM909 62h-794v644h274q1 -53 38 -100.5t85 -47.5h397v-496zM549 317
q3 -13 10.5 -25t13.5 -17l5 -5v-15q-17 -8 -31 -16q14 -8 15 -35v-43h148v34q0 12 -6 20.5t-12 11.5l-7 3l-58 25l1 15q21 17 30 47q1 1 3 1.5t3 1.5t2.5 3.5t2 7.5t0.5 13q0 6 -2 9t-4 3.5t-2 -0.5v23q-10 44 -57 48h-1q-24 0 -36.5 -6.5t-12.5 -12.5l-1 -7q-8 -5 -8 -22
v-23q-1 1 -2.5 0.5t-3.5 -3.5t-2 -9q0 -10 1.5 -15.5t2 -7t4.5 -3.5zM462 286q18 13 28 47q5 2 6.5 3t4 9t3.5 22q0 7 -2 10t-4 3h-3q1 1 1 25q0 46 -50 52q-8 1 -16 1h-1q-16 0 -28 -3t-17 -7t-8 -8t-3 -7v-3q-10 -6 -10 -25v-25h-3q-1 0 -3 -3t-2 -10q0 -14 3 -22t4.5 -9
t6.5 -3q5 -15 11.5 -27t10.5 -16l5 -4v-20l-55 -24q-3 -1 -7.5 -3.5t-12 -12t-7.5 -22.5v-43h231v43q0 13 -7 22t-14 13l-6 3l-56 24v20z" />
    <glyph glyph-name="uniE655" unicode="&#xe655;" 
d="M140 781h397v-149q-1 -45 26 -72.5t73 -26.5h149v-99h99v136l-324 310h-487q-13 0 -22.5 -9t-9.5 -22v-914q0 -13 12.5 -25t24.5 -17l12 -5h397v99h-347v794zM949 96q-18 33 -8.5 70t42.5 56l-47 82q-21 -12 -46 -12q-37 0 -64 27t-27 65h-94q0 -25 -12 -46
q-19 -33 -55.5 -43t-69.5 9l-47 -82q21 -12 33 -34q19 -33 9.5 -69.5t-42.5 -55.5l47 -82q21 12 46 12q37 0 64 -27t27 -65h94q0 24 12 46q19 33 55.5 42.5t69.5 -9.5l47 83q-21 12 -34 33zM752 45q-40 0 -68.5 28.5t-28.5 69t28.5 69t68.5 28.5t68.5 -28.5t28.5 -69
t-28.5 -69t-68.5 -28.5z" />
    <glyph glyph-name="uniE656" unicode="&#xe656;" 
d="M930 193q69 149 26 306q-23 87 -79 159t-138 118l49 104l-277 -72l124 -255l51 109q55 -33 93 -84t55 -111q31 -114 -20 -222q-31 -68 -88 -114.5t-128 -64.5q-20 -6 -41 -9l58 -116q10 2 16 4q97 25 176 89.5t123 158.5v0zM340 101q-56 34 -94.5 85t-55.5 112
q-31 114 20 222q31 68 88 114t128 65q23 6 47 9l-57 117q-13 -2 -23 -5q-97 -26 -176 -90t-123 -158q-69 -149 -26 -307q23 -87 80 -159.5t139 -118.5l-46 -99l277 73l-125 254l-53 -114v0zM340 101z" />
    <glyph glyph-name="uniE657" unicode="&#xe657;" 
d="M115 781h397v-149q-1 -45 26 -72.5t73 -26.5h149v-199h99v236l-324 310h-487q-13 0 -22.5 -9t-9.5 -22v-914q0 -13 12.5 -25t24.5 -17l13 -5h248v99h-199v794zM661 86q-4 6 -3 14.5t3.5 19.5t5 20.5t1.5 16t-7 6.5q-32 0 -54.5 -22.5t-22.5 -54t22.5 -54t54.5 -22.5
t54.5 22.5t22.5 53.5q0 9 -17.5 6t-34.5 -7.5t-25 1.5zM661 285q-64 0 -123 -18t-98 -44t-69 -55t-43.5 -50.5t-13.5 -31t13.5 -31t43.5 -50.5t69 -55t98 -44t123 -18t123 18t98 44t69 55t43.5 50.5t13.5 31t-13.5 31t-43.5 50.5t-69 55t-98 44t-123 18zM661 -66
q-64 0 -109.5 44.5t-45.5 107.5t45.5 108t109 45t109 -45t45.5 -108t-45 -107.5t-109 -44.5z" />
    <glyph glyph-name="uniE658" unicode="&#xe658;" 
d="M661 756l-199 -198l178 -154l190 191l128 -129v414h-413l116 -124v0zM825 660l-190 -190l-95 95l190 191l-69 74h248v-248zM115 -62v892h323v50h-372v-992h892v471h-49v-421h-794zM239 508h174v-50h-174v50v0zM239 285h546v-50h-546v50v0zM239 111h546v-49h-546v49v0z
M239 111z" />
    <glyph glyph-name="uniE659" unicode="&#xe659;" 
d="M768 512h-256q-26 0 -45 -19t-19 -45t19 -45t45 -19h256q26 0 45 19t19 45t-19 45t-45 19zM768 320h-256q-26 0 -45 -19t-19 -45t19 -45t45 -19h256q26 0 45 19t19 45t-19 45t-45 19zM768 704h-256q-26 0 -45 -19t-19 -45t19 -45t45 -19h256q26 0 45 19t19 45t-19 45
t-45 19zM896 896h-512q-53 0 -90.5 -37.5t-37.5 -90.5h-128q-53 0 -90.5 -37.5t-37.5 -90.5v-576q0 -80 56 -136t136 -56h640q80 0 136 56t56 136v704q0 53 -37.5 90.5t-90.5 37.5zM256 0h-96q-13 0 -22.5 9.5t-9.5 22.5v576q0 13 9.5 22.5t22.5 9.5h96v-640zM896 64
q0 -26 -19 -45t-45 -19h-384q-26 0 -45 19t-19 45v640q0 26 19 45t45 19h384q26 0 45 -19t19 -45v-640z" />
    <glyph glyph-name="uniE65A" unicode="&#xe65a;" 
d="M384 640q26 0 45 19l19 19v-358q0 -26 19 -45t45 -19t45 19t19 45v358l19 -19q19 -19 45 -19t45 19t19 45t-19 45l-128 128q-19 19 -45 19t-45 -19l-128 -128q-19 -19 -19 -45t19 -45t45 -19zM958 150q0 27 -18.5 45.5t-45.5 18.5q-37 0 -56 -34h-1q-52 -82 -138 -131
t-187 -49t-187.5 49t-138.5 132q-19 31 -54 31q-26 0 -45 -19t-19 -45q0 -17 11 -34l-1 -1q69 -111 184 -176t250 -65t249.5 65t184.5 176h-1q13 18 13 37z" />
    <glyph glyph-name="uniE65B" unicode="&#xe65b;" 
d="M570 832h-116q-27 0 -45.5 -19t-18.5 -45v-116q0 -27 18.5 -45.5t45.5 -18.5h116q27 0 45.5 18.5t18.5 45.5v116q0 27 -18.5 45.5t-45.5 18.5zM570 506h-116q-27 0 -45.5 -18.5t-18.5 -45.5v-116q0 -27 18.5 -45.5t45.5 -18.5h116q27 0 45.5 18.5t18.5 45.5v116
q0 27 -18.5 45.5t-45.5 18.5zM570 180h-116q-27 0 -45.5 -18.5t-18.5 -45.5v-116q0 -26 18.5 -45t45.5 -19h116q27 0 45.5 19t18.5 45v116q0 27 -18.5 45.5t-45.5 18.5z" />
    <glyph glyph-name="uniE65C" unicode="&#xe65c;" 
d="M33 736q12 -1 19 -1q460 -1 920 0q7 0 19 1q17 -7 17 -25v-3q-4 -3 -13 -8.5t-16 -10t-12 -9.5q-132 -120 -373 -341q-45 -41 -81.5 -41t-82.5 41q-271 248 -370 339q-11 9 -44 30v3q0 18 17 25zM309 336q24 21 46 -2q9 -9 52 -47q51 -45 105.5 -45t105.5 46q6 5 71 63
l207 -171q12 -9 53 -40.5t59 -48.5v-39q0 -20 -27 -20h-938q-27 0 -27 20v46q164 131 183 146q66 54 110 92zM1008 640v-483q-137 115 -279 233q49 44 141.5 127t137.5 124v-1zM16 176v466q53 -48 155 -140t122 -110q-49 -40 -140.5 -112.5t-136.5 -109.5v6z" />
    <glyph glyph-name="uniE65D" unicode="&#xe65d;" 
d="M553 849q-92 0 -175 -35.5t-143.5 -96.5t-97.5 -145t-39 -176l-53 54l-29 -30l102 -105l103 105l-29 30l-53 -53q4 112 59.5 206t149.5 149t205 55q112 0 207.5 -56.5t151 -154t55.5 -212.5t-55.5 -212.5t-151 -154t-207.5 -56.5q-107 0 -198 51.5t-148 139.5h-49
q61 -107 165.5 -170t229.5 -63q92 0 176.5 37t145.5 99t97 148t36 181t-36 181t-97 148t-145.5 99t-176.5 37zM706 310q-45 8 -101 12v31q26 8 39.5 44.5t13.5 66.5v25q0 22 -9 46.5t-32.5 45t-56.5 20.5q-34 -1 -57.5 -21.5t-33 -44.5t-9.5 -46v-25q0 -27 11.5 -61
t40.5 -50q0 -6 -0.5 -16.5t0.5 -14.5l-100 -12q-2 0 -6 -2t-10.5 -8.5t-6.5 -13.5v-34q0 -9 7 -16t16 -7h294q10 0 16.5 7t6.5 16v34q0 7 -5.5 13t-11.5 9z" />
    <glyph glyph-name="uniE65E" unicode="&#xe65e;" 
d="M471 849q92 0 175 -35.5t143.5 -96.5t97.5 -145t39 -176l53 54l29 -30l-102 -105l-103 105l29 30l53 -53q-4 112 -59.5 206t-149.5 149t-205 55q-112 0 -207.5 -56.5t-151 -154t-55.5 -212.5t55.5 -212.5t151 -154t207.5 -56.5q107 0 198 51.5t148 138.5h49
q-61 -106 -165.5 -169t-229.5 -63q-92 0 -176.5 37t-145.5 99t-97 148t-36 181t36 181t97 148t145.5 99t176.5 37zM318 310q45 8 101 12v31q-26 8 -39.5 44.5t-13.5 66.5v25q0 22 9 46.5t32.5 45t56.5 20.5q34 -1 57.5 -21.5t33 -44.5t9.5 -46v-25q0 -27 -11.5 -61
t-40.5 -50q0 -6 0.5 -16.5t-0.5 -14.5l100 -12q2 0 6 -2t10.5 -8.5t6.5 -13.5v-34q0 -9 -7 -16t-16 -7h-294q-10 0 -16.5 7t-6.5 16v34q0 7 5.5 13t11.5 9z" />
    <glyph glyph-name="uniE65F" unicode="&#xe65f;" 
d="M648 46q-90 14 -202 22q-1 16 -1 31t1 22v8q28 8 49.5 35.5t33 61.5t17.5 64.5t6 53.5v50q0 24 -6.5 52.5t-21.5 59.5t-36.5 56t-56 41.5t-75.5 16.5q-41 -1 -75.5 -17.5t-56.5 -41.5t-37.5 -56t-22 -59t-6.5 -52v-50q0 -20 4 -45.5t14 -59t32 -63.5t53 -47
q0 -12 -0.5 -32.5t0.5 -28.5l-199 -22q-6 -2 -13.5 -5.5t-20.5 -16t-12 -27.5v-65q0 -19 13.5 -32t32.5 -13h586q19 0 32.5 13t13.5 32v65q0 15 -12.5 27.5t-20.5 16t-13 5.5zM783 881q-102 0 -174 -56.5t-72 -137.5q0 -75 43.5 -132t123.5 -70l-10 -127q6 3 17.5 9.5t44 27
t62.5 41.5t66 52t62 61t44 65.5t18 67.5q0 98 -60.5 148.5t-164.5 50.5zM956 674q0 -55 -90 -147q-67 -70 -105 -82q-17 -6 -16 9l1 61q-65 11 -111 54.5t-46 99.5q0 66 54.5 113t131.5 47q82 0 134.5 -39.5t46.5 -115.5z" />
    <glyph glyph-name="uniE660" unicode="&#xe660;" 
d="M1008 834l-46 46l-450 -450l-450 450l-46 -46l450 -450l-450 -450l46 -46l450 450l450 -450l46 46l-450 450z" />
    <glyph glyph-name="uniE661" unicode="&#xe661;" 
d="M1008 615l-33 33l-463 -462l-463 462l-33 -33l496 -495z" />
    <glyph glyph-name="uniE662" unicode="&#xe662;" 
d="M512 667l-142 142h-354v-850h992v708h-496zM937 30h-850v708h263l138 -141h449v-567z" />
    <glyph glyph-name="uniE663" unicode="&#xe663;" 
d="M887 -37h-204v46h182q19 0 32 13t13 32v341q0 19 -13 32.5t-32 13.5h-182v45h204q29 0 49 -20t20 -48v-387q0 -28 -20 -48t-49 -20zM569 -37h-432q-29 0 -49 20t-20 48v706q0 28 20 48t49 20h432q28 0 48 -20t20 -48v-706q0 -28 -20 -48t-48 -20zM592 714q0 19 -13.5 32
t-32.5 13h-387q-19 0 -32 -13t-13 -32v-660q0 -19 13 -32t32 -13h387q19 0 32.5 13t13.5 32v660zM432 77h-159q-9 0 -16 6.5t-7 16t7 16t16 6.5h159q10 0 16.5 -6.5t6.5 -16t-6.5 -16t-16.5 -6.5z" />
    <glyph glyph-name="uniE664" unicode="&#xe664;" 
d="M956 -128v68h68v-68h-68zM956 213h68v-136h-68v136zM956 418h68v-68h-68v68zM956 691h68v-136h-68v136zM956 896h68v-68h-68v68zM683 -60h136v-68h-136v68zM751 418h68v-68h-68v68zM683 896h136v-68h-136v68zM478 -60v410v68v410v68h68v-68v-410v-68v-410v-68h-68v68z
M205 -60h136v-68h-136v68zM205 896h136v-68h-136v68zM0 -60h68v-68h-68v68zM0 213h68v-136h-68v136zM0 418h68v-68h-68v68zM0 691h68v-136h-68v136zM0 896h68v-68h-68v68zM273 350h-68v68h68v-68z" />
    <glyph glyph-name="uniE665" unicode="&#xe665;" 
d="M884 757h-26q-63 0 -119.5 10.5t-91 24t-63 30t-37.5 24t-13 10.5l-22 24l-22 -24q-3 -3 -12.5 -10.5t-37.5 -24t-62.5 -30t-91 -24t-120.5 -10.5h-26l-31 1v-447q0 -41 6.5 -76.5t30.5 -83.5t64.5 -89.5t115 -86.5t175.5 -83l11 -4l11 4q101 38 175.5 83t115 86.5
t64.5 89.5t30.5 83.5t6.5 76.5v447zM477 195l-202 184l54 44l107 -81q6 6 17 17.5t44.5 42.5t66.5 58.5t78.5 59.5t86.5 53l20 -24q0 1 -19 -16.5t-50.5 -50.5t-66.5 -74.5t-72.5 -98.5t-63.5 -114zM477 195z" />
    <glyph glyph-name="uniE666" unicode="&#xe666;" 
d="M131 107q-32 0 -55 23.5t-23 56.5v640l-27 -27h867q32 0 55 -23.5t23 -56.5v-640l27 27h-473h-8l-6 -5l-225 -151q-9 -6 -11.5 -16.5t3.5 -20t17 -11.5t20 4l225 151l-15 -5h473h26v27v640q0 55 -38.5 94t-92.5 39h-867h-26v-26v-640q0 -56 38.5 -95t92.5 -39h137
q11 0 18.5 8t7.5 19t-7.5 19t-18.5 8h-137zM368 453.5q0 44.5 -31 75.5t-74.5 31t-74 -31t-30.5 -75.5t30.5 -75.5t74 -31t74.5 31t31 75.5zM210 453q0 22 15.5 38t37 16t37 -16t15.5 -38t-15.5 -37.5t-37 -15.5t-37 15.5t-15.5 37.5zM630 453.5q0 44.5 -30.5 75.5t-74 31
t-74.5 -31t-31 -75.5t31 -75.5t74.5 -31t74 31t30.5 75.5zM473 453q0 22 15 38t37 16t37.5 -16t15.5 -38t-15.5 -37.5t-37.5 -15.5t-37 15.5t-15 37.5zM893 453.5q0 44.5 -31 75.5t-74.5 31t-74 -31t-30.5 -75.5t30.5 -75.5t74 -31t74.5 31t31 75.5zM735 453q0 22 15.5 38
t37 16t37 -16t15.5 -38t-15.5 -37.5t-37 -15.5t-37 15.5t-15.5 37.5z" />
    <glyph glyph-name="uniE667" unicode="&#xe667;" 
d="M1024 384q0 139 -68.5 257t-186.5 186.5t-257 68.5t-257 -68.5t-186.5 -186.5t-68.5 -257t68.5 -257t186.5 -186.5t257 -68.5q179 0 319 111q8 7 9 17t-5.5 18.5t-16.5 9.5t-18 -6q-126 -100 -288 -100q-94 0 -179.5 36.5t-147.5 98.5t-98.5 147.5t-36.5 179.5
t36.5 179.5t98.5 147.5t147.5 98.5t179.5 36.5t179.5 -36.5t147.5 -98.5t98.5 -147.5t36.5 -179.5q0 -132 -70 -244q-5 -9 -2.5 -19t11 -15.5t18.5 -3t16 11.5q77 123 77 270zM337 396q26 0 44.5 18.5t18.5 44.5t-18.5 44t-44.5 18t-44 -18t-18 -44t18 -44.5t44 -18.5z
M712 396q26 0 44 18.5t18 44.5t-18 44t-44 18t-44.5 -18t-18.5 -44t18.5 -44.5t44.5 -18.5zM353 191q69 56 171.5 56t171.5 -56q36 -28 51 -58q4 -9 1 -19t-12.5 -14.5t-19 -1.5t-14.5 13q-2 4 -8 11q-12 17 -29 30q-56 45 -140.5 45t-140.5 -45q-17 -13 -29 -30
q-6 -7 -8 -11q-5 -10 -14.5 -13t-19 1.5t-12.5 14.5t1 19q15 30 51 58z" />
    <glyph glyph-name="uniE668" unicode="&#xe668;" 
d="M973 -38l25 25h-870q-32 0 -54.5 23t-22.5 55v720l-25 -26h870q32 0 54.5 -22.5t22.5 -54.5v-65q0 -10 7.5 -17.5t18 -7.5t18 7.5t7.5 17.5v65q0 53 -37.5 91t-90.5 38h-870h-26v-26v-720q0 -54 37.5 -91.5t90.5 -37.5h870h26v26v476q0 11 -7.5 18.5t-18 7.5t-18 -7.5
t-7.5 -18.5v-476zM513 329q13 -10 27 -2l463 255q9 5 12 15.5t-2 20t-15.5 12.5t-19.5 -3l-463 -255l27 -1l-348 248q-9 7 -19.5 5t-16.5 -10.5t-4 -19t10 -16.5z" />
    <glyph glyph-name="uniE669" unicode="&#xe669;" 
d="M472 824q10 23 17 22.5t17 -22.5l114 -265q4 -9 13.5 -13t19 0t13.5 13.5t0 19.5l-113 264q-23 53 -63 53t-64 -52l-119 -260q-5 -10 -1 -19.5t13.5 -13.5t19 -0.5t14.5 13.5zM946 500q25 -3 27.5 -9.5t-16.5 -22.5l-221 -188q-8 -7 -9 -17t6 -18t17.5 -8.5t18.5 5.5
l221 188q44 37 32 75t-70 44l-289 31q-11 1 -19 -5.5t-9 -17t5.5 -18.5t16.5 -9zM789 -50q5 -24 -0.5 -28t-27.5 8l-250 149q-9 5 -19 2.5t-15.5 -11t-3 -18.5t11.5 -16l250 -148q50 -30 83 -7t21 79l-60 279q-2 11 -10.5 16.5t-19 3.5t-16 -11t-3.5 -19zM233 -67
q-22 -13 -27.5 -8.5t-0.5 28.5l67 279q2 10 -3.5 18.5t-15.5 11t-19 -3t-12 -15.5l-66 -279q-13 -56 19 -79.5t83 5.5l252 142q9 5 12 14.5t-2.5 18.5t-15.5 12t-19 -2zM130 395l-88 78q-8 7 -18 6.5t-17 -8.5t-6.5 -18t7.5 -17l88 -78l128 -114q8 -6 18 -5.5t17 8t6.5 17.5
t-7.5 17zM180 514q15 1 31 3q37 4 76 8q13 2 24 3q6 1 9 1q10 1 16.5 9.5t5.5 18.5t-9.5 16.5t-18.5 4.5q-3 0 -9 -1q-11 -1 -23 -2q-40 -5 -76 -9q-16 -2 -31 -3q-31 -3 -56 -5q-10 -1 -17 -9t-6 -18t9 -16.5t18 -6.5q26 3 57 6z" />
    <glyph glyph-name="uniE66A" unicode="&#xe66a;" 
d="M0 461v-175q0 -26 18.5 -45t45.5 -19h165l-15 6l255 -256q23 -22 45 -13t22 41v747q0 32 -22 41t-45 -14l-255 -256l15 7h-165q-27 0 -45.5 -19t-18.5 -45zM229 482h9l6 6l255 256q3 3 5 4q-3 -1 -7 0.5t-5 4.5q1 -2 1 -6v-747q0 -4 -1 -6q1 3 5 4.5t7 0.5q-2 0 -5 3
l-255 256l-6 7h-9h-165q-9 0 -15 6t-6 15v175q0 9 6 15t15 6h165zM821 360.5q0 89.5 -59.5 153t-143.5 63.5q-9 0 -15 -6.5t-6 -15.5t6 -15t15 -6q66 0 113 -51t47 -123t-47 -122.5t-113 -50.5q-9 0 -15 -6.5t-6 -15.5t6 -15t15 -6q84 0 143.5 63.5t59.5 153zM1003 369
q0 117 -67.5 215t-179.5 147q-8 3 -16 0t-11.5 -11t-0.5 -16.5t11 -11.5q101 -44 161 -131.5t60 -191.5q0 -100 -54.5 -184t-147.5 -131q-8 -4 -10.5 -12t1.5 -16t12 -11t16 1q104 52 165 146.5t61 206.5z" />
    <glyph glyph-name="uniE66B" unicode="&#xe66b;" 
d="M538 323q97 0 165.5 69.5t68.5 167.5t-68.5 167.5t-166 69.5t-166 -69.5t-68.5 -167.5t68.5 -167.5t166.5 -69.5zM538 366q-80 0 -136 56.5t-56 137t56 137.5t135.5 57t136 -57t56.5 -137.5t-56.5 -137t-135.5 -56.5zM1002 -128q0 100 -39 191.5t-104.5 157.5t-156 105.5
t-190 39.5t-190 -39.5t-156 -105.5t-104 -157.5t-38.5 -191.5h42q0 92 35.5 175.5t95 144t142.5 96t173.5 35.5t173.5 -35.5t142.5 -96t95 -144t35.5 -175.5h43zM234 323q36 0 61.5 25.5t25.5 62t-25.5 62t-61.5 25.5t-61.5 -25.5t-25.5 -62t25.5 -62t61.5 -25.5zM234 366
q-19 0 -32 13t-13 31.5t13 32t31.5 13.5t31.5 -13.5t13 -32t-13 -31.5t-31 -13zM831 376q3 1 17.5 5.5t21.5 7.5q1 0 2 1q16 5 35 12l15 5l14 5v15v187v13l-12 6q-4 2 -11 5q-13 7 -24 13q-2 1 -4 1q-13 7 -21 12q-4 2 -6 4q2 -2 4 -7q-44 103 -135.5 169t-194.5 66
q-96 0 -177 -47.5t-128 -129.5t-47 -178q0 -35 6 -69l42 8q-6 30 -6 61q0 129 91 221t219 92q90 0 171 -59t120 -151q3 -7 9.5 -11t33.5 -18q1 -1 3 -2q12 -6 25 -13q7 -3 12 -5l-12 19v-187l14 20q-6 -2 -16 -5q-18 -7 -34 -12q-1 -1 -3 -1q-21 -8 -33 -13q-7 -3 -11 -4
q-3 -2 -5 -3q-1 -1 -4 -2q-15 -8 -7 -24q5 -9 19 -9.5t17 2.5z" />
    <glyph glyph-name="uniE66C" unicode="&#xe66c;" 
d="M24 630h878q30 0 51.5 -21.5t21.5 -51.5v-440l25 24h-147l25 -24v97v25h-25h-682h-25v-25v-97l25 24h-49q-30 0 -51.5 21.5t-21.5 52.5v440zM24 679h-24v-24v-440q0 -51 35.5 -87t86.5 -36h49h24v25v97l-24 -24h682l-24 24v-97v-25h24h147h24v25v440q0 50 -35.5 86
t-86.5 36h-878zM756 -104l24 25h-536l24 -25v224q0 10 -7 17t-17 7t-17.5 -7t-7.5 -17v-224q0 -10 7.5 -17t17.5 -7h536q10 0 17.5 7t7.5 17v224q0 10 -7.5 17t-17.5 7t-17 -7t-7 -17v-224zM207 459h317v49h-317v-49zM219 655v195l-24 -24h634l-24 24v-195h48v195v25h-24
h-634h-24v-25v-195h48z" />
    <glyph glyph-name="uniE66D" unicode="&#xe66d;" 
d="M58 634l432 -244q12 -7 24 0l431 244q13 8 12.5 22.5t-13.5 21.5l-431 215q-11 6 -22 0l-432 -215q-13 -7 -13.5 -21.5t12.5 -22.5zM82 677l-1 -43l432 216h-22l431 -216l-1 43l-431 -245h24zM477 391v-470q0 -14 12.5 -21t24.5 0l460 260q13 7 13 21v317q0 10 -7.5 17
t-17.5 7t-17 -7t-7 -17v-317l12 21l-460 -259l36 -22v470q0 10 -7 17.5t-17 7.5t-17.5 -7.5t-7.5 -17.5zM514 -58l-431 260l12 -21v460q0 11 -7.5 18t-17.5 7t-17 -7t-7 -18v-460q0 -14 12 -21l431 -260q9 -5 19 -2.5t15 11t2.5 18.5t-11.5 15zM173 448l144 -87
q8 -5 18 -2.5t15 11.5t2.5 18.5t-10.5 14.5l-144 87q-9 5 -18.5 2.5t-15 -11t-3 -18.5t11.5 -15z" />
    <glyph glyph-name="uniE66E" unicode="&#xe66e;" horiz-adv-x="1028" 
d="M888 38q1 4 2 12q3 16 6 33q12 55 31 100q4 9 8 17q11 24 33 54q1 2 15 19t25 32t12 19q13 39 3.5 75.5t-36.5 59t-67.5 29.5t-88.5 -13q-6 -2 -10 -7l-182 -230l19 9h-291q-10 0 -17 -7t-7 -17t7 -17.5t17 -7.5h291q12 0 19 10l182 230l-10 -8q64 26 103.5 -6t21.5 -85
l-6 -7q-4 -4 -6 -7q-22 -27 -33 -42q-25 -34 -39 -62l-8 -20q-20 -49 -33 -108q-4 -18 -7 -35q-1 -9 -2 -14q-1 -10 5 -18t16 -9.5t18 5t9 16.5zM188 44q-1 5 -2 14q-3 17 -7 35q-13 59 -33 108q-5 10 -9 20q-13 28 -38 62q-12 15 -34 42q-2 3 -6 7l-6 7q-17 53 22.5 85
t103.5 6l-10 8l106 -135q6 -8 16 -9t18 5t9 16t-5 18l-106 135q-4 5 -10 7q-37 15 -72 14.5t-60 -14.5t-43 -37t-21 -52.5t6 -61.5q2 -4 13 -19t24.5 -32t15.5 -19q22 -30 33 -54q4 -8 8 -17q18 -45 30 -100q4 -17 7 -33q1 -8 2 -12q1 -10 9 -16.5t18 -5t16 9.5t5 18z
M197 -68v97l-24 -25h691l-24 25v-97q0 -10 7 -17.5t17 -7.5t17 7.5t7 17.5v97q0 10 -7 17t-17 7h-691q-10 0 -17 -7t-7 -17v-97q0 -10 7 -17.5t17 -7.5t17 7.5t7 17.5zM173 477v170q0 30 21.5 51.5t51.5 21.5h509q30 0 51.5 -21.5t21.5 -51.5v-170h48v170q0 50 -35.5 85.5
t-85.5 35.5h-509q-50 0 -85.5 -35.5t-35.5 -85.5v-170h48z" />
    <glyph glyph-name="uniE66F" unicode="&#xe66f;" 
d="M244 -24q50 0 86 35.5t36 86t-36 86t-86.5 35.5t-86 -35.5t-35.5 -86t35.5 -86t86.5 -35.5zM244 24q-30 0 -51.5 21.5t-21.5 52t21.5 52t51.5 21.5t51.5 -21.5t21.5 -52t-21.5 -52t-51.5 -21.5zM805 -24q50 0 85.5 35.5t35.5 86t-35.5 86t-86 35.5t-86 -35.5t-35.5 -86
t35.5 -86t86.5 -35.5zM805 24q-31 0 -52.5 21.5t-21.5 52t21.5 52t52 21.5t52 -21.5t21.5 -52t-21.5 -52t-51.5 -21.5zM1012 85v232q0 51 -35.5 86.5t-86.5 35.5h-854q-10 0 -17 -7t-7 -17v-220q0 -51 35.5 -86.5t86.5 -35.5q10 0 17 7t7 17t-7 17.5t-17 7.5q-30 0 -51.5 21
t-21.5 52v220l-25 -25h854q30 0 51.5 -21.5t21.5 -51.5v-232q0 -10 7 -17t17.5 -7t17.5 7t7 17zM360 73h335q10 0 17 7t7 17t-7 17.5t-17 7.5h-335q-10 0 -17 -7.5t-7 -17.5t7 -17t17 -7zM289 654l-21 -11h354l-17 7l232 -232l59 5l-257 262l-7 7h-10h-354h-13l-7 -12
l-163 -257h58zM463 667v-244h49v244h-49z" />
    <glyph glyph-name="uniE670" unicode="&#xe670;" 
d="M910 477q-9 0 -15 6t-6 15v259q0 13 -9.5 22.5t-22.5 9.5q-236 0 -258 -1q-8 0 -14.5 5t-8.5 13q-1 9 4 16t14 9q6 1 263 1q31 0 53 -22t22 -53v-259q0 -9 -6.5 -15t-15.5 -6zM85 477q-8 0 -14.5 6t-6.5 15v259q0 31 22 53t53 22q257 0 263 -1q9 -2 14 -9t4 -16
q-2 -8 -8.5 -13t-14.5 -5q-22 1 -258 1q-13 0 -22.5 -9.5t-9.5 -22.5v-259q0 -9 -6.5 -15t-15.5 -6zM857 -78q-257 0 -263 1q-9 2 -14 9t-4 16q2 8 8.5 13t14.5 5q22 -1 258 -1q13 0 22.5 9.5t9.5 22.5v259q0 9 6 15t15 6t15.5 -6t6.5 -15v-259q0 -31 -22 -53t-53 -22z
M139 -78q-31 0 -53 22t-22 53v259q0 9 6.5 15t15 6t15 -6t6.5 -15v-259q0 -13 9.5 -22.5t22.5 -9.5q236 0 258 1q8 0 14.5 -5t8.5 -13q1 -9 -4 -16t-14 -9q-6 -1 -263 -1zM984 362h-941q-9 0 -15.5 6.5t-6.5 15.5t6.5 15t15.5 6h941q8 0 14.5 -6t6.5 -15t-6.5 -15.5
t-14.5 -6.5z" />
    <glyph glyph-name="uniE671" unicode="&#xe671;" horiz-adv-x="1025" 
d="M302 391l-147 88q-8 6 -18 3.5t-15.5 -11.5t-3 -19t11.5 -15l147 -89q9 -5 19 -2.5t15 11.5t2.5 19t-11.5 15zM459 -125q10 -3 19 2q-9 -5 -19 -2zM302 391l-147 88q-8 6 -18 3.5t-15.5 -11.5t-3 -19t11.5 -15l147 -89q9 -5 19 -2.5t15 11.5t2.5 19t-11.5 15zM302 391
l-147 88q-8 6 -18 3.5t-15.5 -11.5t-3 -19t11.5 -15l147 -89q9 -5 19 -2.5t15 11.5t2.5 19t-11.5 15zM302 391l-147 88q-8 6 -18 3.5t-15.5 -11.5t-3 -19t11.5 -15l147 -89q9 -5 19 -2.5t15 11.5t2.5 19t-11.5 15zM302 391l-147 88q-8 6 -18 3.5t-15.5 -11.5t-3 -19
t11.5 -15l147 -89q9 -5 19 -2.5t15 11.5t2.5 19t-11.5 15zM302 391l-147 88q-8 6 -18 3.5t-15.5 -11.5t-3 -19t11.5 -15l147 -89q9 -5 19 -2.5t15 11.5t2.5 19t-11.5 15zM478 -123q-9 -5 -19 -2q10 -3 19 2zM491 -58v442l389 221l40 25q8 5 11 16q2 17 -14 25l-440 220
q-11 6 -23 0l-440 -220q-14 -9 -14 -37v-470q0 -14 12 -21q431 -261 438 -264q18 -9 32 -2l144 83q9 6 11.5 16t-2.5 19q-5 10 -15.5 12.5t-19.5 -2.5l-99 -58v1zM440 384v-441l-390 235v428zM466 428l-388 219l388 194l387 -194zM813 -21l202 121q9 6 9 17v222q0 11 -12 16
l-5 3h-2h1l-196 98q-8 4 -17 0l-196 -98q-18 -7 -18 -24v-217q0 -11 9 -17q201 -120 202 -120q0 -1 3.5 -2.5t8.5 -2t11 3.5zM782 28l-165 99v179l165 -93v-185zM802 246l-161 91l161 81l160 -81zM986 127l-165 -99v185l165 93v-179z" />
    <glyph glyph-name="uniE672" unicode="&#xe672;" horiz-adv-x="1025" 
d="M331.5 564.5q-8.5 -8.5 -8.5 -20t9 -20.5l321 -321q9 -9 20.5 -9t20 8.5t8.5 20t-8 20.5l-322 322q-9 8 -20.5 8t-20 -8.5zM96 836l-36 -36q-60 -60 -60 -145t60 -145l127 -127q46 -46 110.5 -56.5t120.5 16.5q1 0 1 0.5t1 0.5h1q4 2 7 6q9 8 9 20t-9 20q-14 15 -33 6
q-42 -20 -90 -12t-82 43l-120 119q-45 45 -45 109t45 109l29 29q45 45 109 45t109 -45l119 -120q35 -35 43 -83.5t-13 -91.5v0q-7 -18 6 -31q9 -8 21 -8t20 8q4 4 6 8q28 57 18 122t-57 112l-127 127q-60 60 -145 60t-145 -60zM963 -31l-36 -36q-60 -60 -144.5 -60
t-144.5 60l-127 126q-47 47 -57.5 111.5t17.5 120.5v1l0.5 0.5t0.5 1.5q2 4 5 7q8 8 20 8t21 -8q14 -15 5 -33q-20 -42 -11.5 -90t42.5 -82l120 -120q45 -45 108.5 -45t108.5 45l29 29q45 45 45 108.5t-45 108.5l-119 120q-35 35 -84 43t-91 -13v0q-18 -7 -31 6q-9 8 -9 20
t9 21q4 3 7 5q57 29 122.5 18.5t112.5 -57.5l126 -127q60 -60 60 -144.5t-60 -144.5z" />
    <glyph glyph-name="uniE673" unicode="&#xe673;" 
d="M998 552q11 0 18.5 7.5t7.5 18t-7.5 18.5t-18.5 8h-972q-11 0 -18.5 -8t-7.5 -18.5t7.5 -18t18.5 -7.5h972zM359 806q0 11 -7.5 18.5t-18.5 7.5t-18.5 -7.5t-7.5 -18.5v-832q0 -10 7.5 -17.5t18.5 -7.5t18.5 7.5t7.5 17.5v832zM998 345q11 0 18.5 7.5t7.5 18t-7.5 18.5
t-18.5 8h-972q-11 0 -18.5 -8t-7.5 -18.5t7.5 -18t18.5 -7.5h972zM998 138q11 0 18.5 7.5t7.5 18.5t-7.5 18.5t-18.5 7.5h-972q-11 0 -18.5 -7.5t-7.5 -18.5t7.5 -18.5t18.5 -7.5h972zM928 189zM882 832h-854h-28v-29v-722q0 -60 41.5 -102.5t100.5 -42.5h854h28v29v260
q0 12 -8.5 20.5t-20 8.5t-20 -8.5t-8.5 -20.5v-231h-825q-35 0 -60 25.5t-25 61.5v693h825q35 0 60 -25.5t25 -61.5v-311q1 -11 9 -19t19.5 -8t20 8t8.5 19v311q0 60 -41.5 102.5t-100.5 42.5zM692 806q0 11 -7.5 18.5t-18.5 7.5t-18.5 -7.5t-7.5 -18.5v-832
q0 -10 7.5 -17.5t18.5 -7.5t18.5 7.5t7.5 17.5v832z" />
    <glyph glyph-name="uniE674" unicode="&#xe674;" 
d="M608 603q11 0 18.5 7.5t7.5 18.5t-7.5 18.5t-18.5 7.5h-141q-10 0 -17.5 -8t-7.5 -18.5t7.5 -18t17.5 -7.5h141zM864 603q11 0 18.5 7.5t7.5 18.5t-7.5 18.5t-18.5 7.5h-141q-10 0 -17.5 -8t-7.5 -18.5t7.5 -18t17.5 -7.5h141zM608 447q11 0 18.5 7.5t7.5 18.5t-7.5 18.5
t-18.5 7.5h-141q-10 0 -17.5 -7.5t-7.5 -18.5t7.5 -18.5t17.5 -7.5h141zM864 447q11 0 18.5 7.5t7.5 18.5t-7.5 18.5t-18.5 7.5h-141q-10 0 -17.5 -7.5t-7.5 -18.5t7.5 -18.5t17.5 -7.5h141zM608 291q11 0 18.5 8t7.5 18.5t-7.5 18t-18.5 7.5h-141q-10 0 -17.5 -7.5
t-7.5 -18t7.5 -18.5t17.5 -8h141zM864 291q11 0 18.5 8t7.5 18.5t-7.5 18t-18.5 7.5h-141q-10 0 -17.5 -7.5t-7.5 -18t7.5 -18.5t17.5 -8h141zM864 291zM608 136q11 0 18.5 7.5t7.5 18t-7.5 18.5t-18.5 8h-141q-10 0 -17.5 -8t-7.5 -18.5t7.5 -18t17.5 -7.5h141zM864 136
q11 0 18.5 7.5t7.5 18t-7.5 18.5t-18.5 8h-141q-10 0 -17.5 -8t-7.5 -18.5t7.5 -18t17.5 -7.5h141zM864 136zM882 832h-854h-28v-29v-722q0 -60 41.5 -102.5t100.5 -42.5h854h28v29v260q0 12 -8.5 20.5t-20 8.5t-20 -8.5t-8.5 -20.5v-231h-825q-35 0 -60 25.5t-25 61.5v693
h825q35 0 60 -25.5t25 -61.5v-260q1 -11 9 -19t19.5 -8t20 8t8.5 19v260q0 60 -41.5 102.5t-100.5 42.5zM142 557.5q0 -41.5 29.5 -71.5t70.5 -30t70 30t29 71.5t-29 71.5t-70 30t-70.5 -30t-29.5 -71.5zM284 557q0 -18 -12.5 -30.5t-30 -12.5t-30 12.5t-12.5 30.5t12.5 31
t30 13t30 -13t12.5 -31z" />
    <glyph glyph-name="uniE675" unicode="&#xe675;" 
d="M501 -126q11 -4 22 0q5 2 9 6l159 159q8 9 8 20.5t-8 20t-20 8.5t-20 -9l-111 -110v335q0 12 -8 20.5t-20 8.5t-20 -8.5t-8 -20.5v-335l-111 110q-8 9 -20 9t-20 -8.5t-8 -20t8 -20.5l159 -159h1l2 -2q4 -3 6 -4zM523 894q-11 4 -22 0q-5 -2 -9 -6l-159 -159
q-8 -9 -8 -20.5t8 -20t20 -8.5t20 9l111 110v-335q0 -12 8 -20.5t20 -8.5t20 8.5t8 20.5v335l111 -110q8 -9 20 -9t20 8.5t8 20.5t-8 20l-159 159h-1l-2 2q-4 3 -6 4zM1022 373q4 11 0 22q-2 5 -6 9l-159 159q-9 8 -20.5 8t-20 -8t-8.5 -20t9 -20l110 -111h-335
q-12 0 -20.5 -8t-8.5 -20t8.5 -20t20.5 -8h335l-110 -111q-9 -8 -9 -20t8.5 -20t20.5 -8t20 8l159 159v1l2 2q3 4 4 6zM2 395q-4 -11 0 -22q2 -5 6 -9l159 -159q9 -8 20.5 -8t20 8t8.5 20t-9 20l-110 111h335q12 0 20.5 8t8.5 20t-8.5 20t-20.5 8h-335l110 111q9 8 9 20
t-8.5 20t-20.5 8t-20 -8l-159 -159v-1l-2 -2q-3 -4 -4 -6z" />
    <glyph glyph-name="uniE676" unicode="&#xe676;" 
d="M853 363q9 0 15.5 6t6.5 15t-6.5 15t-15.5 6h-682q-9 0 -15.5 -6t-6.5 -15t6.5 -15t15.5 -6h682z" />
    <glyph glyph-name="uniE677" unicode="&#xe677;" 
d="M819 308q-25 46 -67 74q-45 30 -97 44q-56 14 -131 17v327q40 -1 77 -11q44 -11 76 -36q31 -25 49 -63t18 -94q0 -11 7.5 -18.5t18 -7.5t18 7.5t7.5 18.5q0 67 -23 116t-63 81q-40 31 -95 46q-43 11 -90 13v48q0 10 -7.5 17.5t-18 7.5t-18 -7.5t-7.5 -17.5v-48
q-38 -2 -70 -10q-47 -11 -84.5 -33.5t-58.5 -51t-32.5 -57.5t-12.5 -58q-1 -18 0.5 -36t10.5 -44.5t25.5 -48.5t48.5 -42.5t75 -31.5q48 -12 98 -16v-375q-43 4 -80 15q-53 16 -91 49q-39 32 -61 79t-23 111q-1 10 -8.5 17.5t-18.5 6.5q-10 0 -17.5 -7.5t-7.5 -18.5
q2 -73 29 -131q27 -57 74 -96q46 -39 109 -59q46 -14 95 -17v-69q0 -11 7.5 -18t18.5 -7t18 7t7 18v68q46 1 97 10q58 11 107 38q49 28 81 74q34 48 34 120q0 54 -24 100zM473 445q-44 3 -85 14q-38 9 -64 26.5t-38.5 39t-17 42t-2.5 42.5q0 10 2 21t11.5 32t24 38.5t44 35
t67.5 26.5q26 7 58 8v-325zM767 117q-25 -36 -65 -59q-41 -23 -90 -32q-45 -8 -88 -9v374q67 -2 118 -15q43 -10 81 -36q32 -21 51 -56q18 -34 18 -76q0 -56 -25 -91z" />
    <glyph glyph-name="uniE678" unicode="&#xe678;" 
d="M335 712q91 2 135 -43q13 -12 20 -28q4 -6 4 -10v6v-440q0 6 10 10q9 4 13 1l-16 -20l20 16q-13 18 -45 33q-58 29 -148 29t-141 -28q-30 -17 -40 -37l23 -11l-19 17q5 6 17 1q11 -4 11 -11v300v140l-3 -13q3 5 9 13q13 17 29 31q53 46 121 44zM335 764q-86 1 -154 -57
q-33 -28 -50 -58l-3 -5v-7v-140v-300q0 -28 21.5 -36.5t39.5 12.5l3 3l1 3q3 5 19 14q39 22 116 22q78 0 125 -24q21 -10 27 -18l2 -2l2 -2q21 -17 41 -8t20 36v440l-1 5q-7 33 -38 64q-59 59 -171 58zM0 506v-478q0 -28 20.5 -36.5t40.5 9.5l2 2q4 5 13 13q19 16 43 30
q77 45 173 45q94 0 156 -51q19 -16 33 -35q6 -9 9 -14q5 -10 15 -13t19.5 1.5t13 14.5t-1.5 19q-16 34 -55 66q-76 63 -189 63q-110 0 -199 -52q-45 -26 -68 -53l19 -17l-17 19q4 4 14 0q10 -5 10 -11v478q0 11 -7.5 18.5t-18 7.5t-18 -7.5t-7.5 -18.5zM697 764
q-113 1 -172 -58q-31 -31 -38 -64l-1 -5v-440q0 -27 20.5 -36t40.5 8l2 2l2 2q6 8 27 18q47 24 125 24q77 0 117 -22q15 -9 18 -14l2 -3l2 -3q19 -21 40 -12.5t21 36.5v300v140v7l-3 5q-17 30 -50 58q-67 58 -154 57h1zM697 712q67 2 120 -44q16 -14 29 -31q7 -8 10 -13
l-4 13v-140v-300q0 7 11 11q12 5 17 -1l-19 -17l23 11q-10 20 -40 37q-51 28 -141 28t-148 -29q-32 -15 -45 -33l21 -16l-17 20q4 3 14 -1t10 -10v440l-1 -6q1 4 4 10q7 16 20 28q44 45 135 43h1zM973 506v-478q0 6 10 11q10 4 14 0l-17 -19l19 17q-23 27 -68 53
q-89 52 -199 52q-113 0 -189 -66q-38 -34 -54 -69q-5 -10 -1 -19.5t13.5 -14t19.5 -1t14 13.5l9 15q14 20 33 36q61 54 155 54q96 0 173 -45q24 -14 43 -30q9 -8 13 -13l2 -2q20 -18 40.5 -9.5t20.5 36.5v478q0 11 -7.5 18.5t-18 7.5t-18 -7.5t-7.5 -18.5z" />
    <glyph glyph-name="uniE679" unicode="&#xe679;" 
d="M1013 125l4 257l1 19l-19 5l-87 24l18 -25v369v25h-24l-355 4h-20l-4 -20l-72 -329l24 19h-101h-18l-5 -16l-141 -401l-12 -33h35h168q10 0 17.5 7t7.5 17.5t-7.5 18t-17.5 7.5h-168l23 -34l142 401l-24 -17h101h20l5 20l72 330l-25 -20l354 -4l-24 25v-369v-19l18 -5
l87 -23l-18 24l-4 -257q-1 -10 6.5 -17.5t17.5 -7.5t17.5 7t7.5 18zM489 -43q46 0 79 33t33 80t-33 80t-79.5 33t-79 -33t-32.5 -80t32.5 -80t79.5 -33zM489 8q-26 0 -44.5 18t-18.5 44t18.5 44.5t44 18.5t44 -18.5t18.5 -44.5t-18.5 -44t-43.5 -18zM787 -43q47 0 80 33
t33 80t-33 80t-79.5 33t-79.5 -33t-33 -80t33 -80t79 -33zM787 8q-25 0 -43.5 18t-18.5 44t18.5 44.5t44 18.5t44 -18.5t18.5 -44.5t-18.5 -44t-44.5 -18zM363 788l-255 -710l27 16l-104 18q-10 2 -18.5 -4t-10.5 -16t4 -18.5t16 -10.5l105 -18l20 -4l7 20l256 710
q4 10 -0.5 19t-14 13t-19 -0.5t-13.5 -14.5zM584 429h240h24l-1 23l-10 230l-1 22h-22l-188 -3h-18l-4 -18l-42 -228l-5 -26h27zM584 474l22 -27l42 228l-21 -19l188 3l-23 21l10 -230l22 24h-240zM283 204l-94 27l-14 -48l94 -27zM591 33h123v50h-123v-50z" />
    <glyph glyph-name="uniE67A" unicode="&#xe67a;" 
d="M418 719l-2 -66h-266v-50h269v-88h-222v-48l225 2l227 2l-4 -16q-8 -30 -32 -87t-30 -60q-8 -2 -74 17q-85 26 -136.5 35.5t-108.5 9.5q-58 -1 -99 -12.5t-77 -37.5q-71 -50 -75.5 -133.5t60.5 -138.5q70 -59 175 -64t209 45q36 18 90.5 57t76.5 64l12 14l38 -19
q29 -15 157.5 -74t158.5 -72l22 -9v173l-59 15q-41 11 -121 36t-112 38l-17 6l23 46q17 36 43.5 111t26.5 89q0 7 -20 9t-98 2h-117v88h282v44q0 4 -141 3l-141 -1v136h-141zM391 280q67 -23 104 -42l39 -21l-22 -27q-23 -28 -63 -58q-57 -43 -114 -60.5t-125 -13.5
q-144 8 -153 118q-3 33 5 54.5t32 39.5q29 22 60.5 29t96.5 5q48 -1 73.5 -5.5t66.5 -18.5z" />
    <glyph glyph-name="uniE67B" unicode="&#xe67b;" 
d="M370 857q-21 -8 -40 -29q-39 -43 -38 -119q0 -27 3 -41t14 -36q22 -49 61.5 -62.5t74.5 15.5q46 36 53 108.5t-30 124.5q-9 14 -34.5 30.5t-36.5 15.5q-9 -1 -27 -7zM653 835q-15 -4 -43 -31.5t-39 -50.5q-19 -38 -18 -82.5t21 -74.5q18 -27 52.5 -36.5t65.5 3.5
q42 17 68.5 70t16.5 98q-11 50 -48.5 81t-75.5 23zM150 636q-21 -7 -41 -30t-28 -48q-32 -104 23 -167q21 -23 38 -30t47 -5q60 5 88 62q9 18 11.5 31.5t2.5 44.5q0 48 -12 69q-24 47 -65 67q-23 12 -33 13t-31 -7zM783 562q-58 -30 -58 -135q0 -40 5.5 -61.5t20.5 -39.5
q34 -38 97 -33q28 3 45.5 11.5t29.5 26.5q13 19 17.5 40t4.5 61q0 32 -2.5 45t-11.5 31q-17 31 -39 45.5t-56 15.5q-35 2 -53 -7zM446 460q-26 -12 -43.5 -27t-34.5 -40q-23 -34 -49.5 -62t-73.5 -69q-71 -62 -93 -95.5t-23 -81.5q-1 -58 29 -104t77 -60q27 -8 87.5 -6
t113.5 13q80 15 176 -9q50 -13 100.5 -13t79.5 13q54 24 78 88t1 125q-11 30 -43 60q-57 53 -112.5 110t-75.5 85q-47 62 -93 77q-21 7 -51 6t-50 -10zM462 313q5 -3 6.5 -32t3.5 -131l1 -157h-62q-58 0 -86 7t-48 28q-18 19 -24 35.5t-6 47.5q0 30 5.5 46.5t22.5 33.5
q20 22 41 30t57 8h42v89h20q19 0 27 -5zM567 147v-41q0 -12 2.5 -26t4.5 -17.5t10.5 -7.5t15.5 -4h23h39v168h64l-2 -101q0 -6 -1 -18v-34q0 -10 -2 -24.5t-2.5 -19t-6.5 -11.5t-9 -8t-14.5 -3t-18.5 -2h-27h-14q-55 0 -74.5 5.5t-34.5 23.5q-7 10 -9 26t-2 76q0 88 4 91
q3 4 29 4h25v-77zM337 171q-22 -13 -29 -39t4 -53q16 -36 70 -33l30 2v131l-29 2q-28 1 -46 -10z" />
    <glyph glyph-name="uniE67C" unicode="&#xe67c;" 
d="M459 744q-51 -12 -86 -36q-23 -15 -44.5 -41t-33.5 -51q-24 -53 -22 -108l1 -9l-25 -3q-39 -6 -70 -21q-99 -47 -127 -152q-4 -15 -4 -49.5t3 -49.5q21 -91 97 -141q34 -22 67 -30q15 -3 18 -5q7 -2 40.5 -2t50.5 5q60 16 99 51q19 17 138 153q7 7 19.5 21.5t15.5 18.5
q4 4 33 37q22 25 39.5 36.5t42.5 15.5q32 6 65.5 -11t49.5 -48q15 -29 15 -57.5t27 -46.5q9 -6 27 -6t27 5q47 25 21 116q-12 40 -40.5 75t-67.5 57q-35 20 -82 26q-21 2 -24 3t-4 30q0 28 -5 46q-10 36 -24.5 61.5t-40.5 50.5q-47 45 -110 58q-13 3 -44 3t-42 -2zM530 634
q26 -6 48 -27t31 -48q4 -14 4 -35.5t-5 -34.5q-17 -49 -62 -68q-19 -9 -44 -9t-33 3q-28 11 -43 23q-7 6 -17.5 22t-14.5 28q-5 14 -5 35.5t4 35.5q15 46 59 68q36 17 78 7zM320 374q43 -20 58 -65t-6 -89q-15 -32 -49 -48.5t-68 -10.5q-26 5 -47 20q-27 18 -39.5 52
t-4.5 66q7 27 27 49t44 30q17 6 45 5q23 -1 40 -9zM873 151q-21 -10 -29 -30q-3 -8 -3 -21.5t3 -20.5q17 -33 52 -33q26 0 42 20q23 26 10 56q-14 31 -49 33q-15 1 -26 -4z" />
    <glyph glyph-name="uniE67D" unicode="&#xe67d;" horiz-adv-x="1025" 
d="M172 526h48q8 0 13 -6t5 -13v-5q0 -7 -5 -12.5t-13 -5.5h-42q-50 0 -87 -27t-35 -75q1 -44 37.5 -71.5t84.5 -27.5h42q8 0 13 -5t5 -12v-6q0 -6 -6 -12t-13 -6h-45q-51 -1 -97.5 23.5t-65.5 68.5q-17 36 -8 75.5t41 68.5q51 48 128 48zM180 466h40q8 0 13 -5.5t5 -13.5
v-5q0 -8 -5 -13.5t-13 -5.5h-42q-25 -2 -38 -12q-14 -12 -14.5 -28.5t11.5 -28.5q17 -16 41 -16h42q8 0 13 -6t5 -13v-5q0 -8 -5 -14t-13 -6h-42q-55 0 -85 34q-21 21 -20.5 53t27.5 58q8 8 19.5 14t21.5 8.5t19 3.5t14 1h6zM415 526h48q7 0 12.5 -5.5t5.5 -13.5v-5
q0 -7 -5.5 -12t-12.5 -5h-42q-51 0 -87.5 -27.5t-34.5 -74.5q1 -45 37.5 -72.5t84.5 -27.5h42q7 0 12.5 -5t5.5 -12v-5q0 -7 -6 -13t-13 -6h-45q-52 -1 -98 24t-66 69q-16 36 -7.5 75.5t40.5 68.5q52 47 129 47zM422 470h41q7 0 12.5 -5.5t5.5 -13.5v-5q0 -8 -5.5 -13.5
t-12.5 -5.5h-21h-22q-25 -2 -37 -13q-14 -11 -15 -27.5t12 -29.5q16 -15 41 -15h42q7 0 12.5 -6t5.5 -14v-5q0 -8 -5.5 -13.5t-12.5 -5.5h-42q-55 0 -85 34q-21 21 -21 53t27 58q14 13 34 19.5t33 7.5h13zM731 470q24 0 34 -21l55 -133q1 -4 4 -9.5t11.5 -15.5t17 -9.5
t16 7.5t10.5 13l3 6l84 192q4 8 5.5 12t7.5 8.5t13 5.5h32l-109 -234q-20 -42 -52 -47q-23 -4 -42 7t-28 31l-62 132q-1 2 -2.5 3.5t-7 5t-11.5 2.5h-20q-10 -1 -11 -11v-154q0 -8 -6.5 -13.5t-15.5 -5.5h-6q-9 0 -15 5.5t-6 13.5v189q0 20 21 20h80zM512 469
q-7 0 -12.5 -5.5t-5.5 -13.5v-6q0 -7 5.5 -12.5t12.5 -5.5h42q10 -1 11 -11v-154q0 -8 6.5 -13.5t14.5 -5.5h7q8 0 14 5.5t6 13.5v188q0 20 -20 20h-81zM740 526h-228q-7 0 -12.5 -5.5t-5.5 -13.5v-5q0 -7 5.5 -12t12.5 -5h227q16 -1 25 -7.5t16 -23.5l56 -132q7 -22 16 -23
q3 -1 6.5 2.5t7 9t4.5 6.5l24 54l66 155h-28q-9 -1 -15 -6t-8 -9l-2 -5l-47 -118q0 -2 -2.5 -5t-4.5 -3t-3.5 2t-1.5 4l-1 2l-34 100q-3 7 -7.5 13.5t-9.5 10t-11.5 6.5t-12 4.5t-11.5 2.5t-10 1h-7h-4z" />
    <glyph glyph-name="uniE67E" unicode="&#xe67e;" 
d="M551 425h252q35 0 69 24t56.5 63t32.5 84.5t-3.5 95t-51.5 87.5q-43 43 -95 56.5t-96.5 0t-82.5 -41t-60 -64.5t-22 -71q0 -52 0.5 -110t0.5 -91v-33zM549 340v-251q0 -35 23.5 -69t63 -56.5t85 -33t94.5 3t87 51.5q44 44 57.5 95.5t-0.5 96t-41 82.5t-64.5 60t-71.5 23
h-111q-52 0 -87 -1zM473 343h-251q-35 0 -69.5 -24t-57 -63t-32.5 -84.5t3.5 -95t51.5 -87.5q44 -43 95.5 -56.5t96 0t82.5 41t60 64.5t22 71q2 115 -1 234zM292 840q70 1 126.5 -55.5t56.5 -114.5v-243q-118 -2 -233 -2q-78 0 -130.5 52.5t-52.5 109.5v252q118 0 233 1z
" />
    <glyph glyph-name="uniE67F" unicode="&#xe67f;" 
d="M707 811q4 -20 10.5 -28t24.5 -14q43 -16 60 -43q20 -33 -9 -75.5t-96 -81.5t-154 -62q-41 -11 -43 -8q-3 2 5.5 41t16.5 66q19 55 46 76.5t54 3.5q12 -7 28 -4q17 5 17 9q0 9 -18 36.5t-35 45.5q-43 44 -89 44q-106 0 -169 -189q-16 -51 -24 -97l-7 -47l-19 3
q-39 6 -70 21.5t-41 34.5q-19 37 14 82t110 84l38 20l-3 15q-3 15 -6 18q-2 3 -43.5 -15.5t-71.5 -35.5q-76 -45 -124 -100t-53 -104q-5 -39 19.5 -76t69.5 -58q63 -30 141 -38h9q19 -2 22.5 -8t7.5 -42q1 -11 2 -17q10 -93 41.5 -170.5t75.5 -117.5q43 -41 91 -36
q58 6 106 78t72 187q8 41 8 54q0 10 -5 10.5t-39 -9.5l-21 -6l-5 -31q-5 -33 -16.5 -67t-22.5 -49q-25 -34 -49 -21t-43 73q-22 69 -26 153l-1 27l46 10q111 24 209.5 73.5t155.5 109.5q81 85 61.5 158.5t-132.5 110.5q-19 7 -55.5 13t-54.5 6h-19z" />
    <glyph glyph-name="uniE680" unicode="&#xe680;" 
d="M481 845q-86 -6 -162 -41t-130 -89t-89.5 -125.5t-46 -147.5t7.5 -157.5t65 -153.5t115.5 -121t143 -69.5t154.5 -16t151.5 34t134 86t101.5 134.5t46.5 161.5t-12.5 158t-65 141.5t-106.5 114.5t-141.5 72.5t-166 18zM552 785q82 -9 151.5 -46.5t115 -93t71 -126
t25 -142.5t-30 -145t-87.5 -132q-57 -57 -129.5 -87.5t-147 -30t-145 24.5t-130 76t-94.5 125q-34 69 -40 143t12.5 139.5t59 123.5t95.5 98t126.5 60t147.5 13zM245 409h182v-61h-182l1 -224l250 -1v66h-178l1 86h177v200h-178v69h178v74h-251v-209zM528 544h178v-69h-178
v-200h178v-85l-178 -1v-66l251 1v224h-182v61h182v209h-251v-74z" />
    <glyph glyph-name="uniE681" unicode="&#xe681;" 
d="M537 797q-28 -3 -24 -7q2 -2 13 -4q46 -21 94.5 -67t118.5 -139q5 -6 14 -18q66 -88 83.5 -96.5t55.5 27.5q5 4 8 7q34 28 31 43t-54 75q-72 85 -120 124.5t-97.5 52t-122.5 2.5zM427 771q-79 -15 -144.5 -56.5t-107.5 -97.5t-63.5 -125.5t-19 -139.5t33 -140.5
t87.5 -127.5t129 -87.5t146 -30.5t144.5 24t130.5 76t98 125q11 20 22 51.5t15.5 55.5t1.5 26q-6 5 -90.5 14t-112.5 9q-8 0 -19.5 -7.5t-41.5 -30.5q-157 -118 -160 -118q-164 198 -164 202q204 164 206 164l164 -198q6 0 60 38t66 49l8 8q-83 112 -161 206
q-62 80 -109.5 102.5t-118.5 8.5z" />
    <glyph glyph-name="uniE682" unicode="&#xe682;" 
d="M86 664v-243v-5q-1 -94 -1 -130v-76q0 -39 4 -54.5t8.5 -28t14.5 -35.5q3 -6 5 -9q39 -81 109.5 -125.5t159.5 -44.5l14 2q-1 0 -6 3q-156 68 -209 192.5t19 258.5q34 67 90 109.5t117 56.5t125 2.5t117 -45t91.5 -93t48.5 -134.5v-22h-82l-82 4l-9 18q-12 38 -37.5 63.5
t-56.5 34t-64.5 3.5t-61 -22.5t-45 -49.5t-17.5 -73q-1 -40 17 -72t46 -49t62.5 -21.5t66.5 4.5t58 35t36 64q4 20 16 22.5t84 -0.5h69v-22q-3 -26 -15 -58t-28 -54l-17 -31q-5 -13 64 58q36 38 49 55q51 64 74.5 132.5t19 128t-30 112t-67.5 89.5t-96.5 56t-113.5 17
t-124 -33t-122 -90q-27 -27 -32 -27q-10 0 -9 75q0 20 2 82q0 161 -5 161z" />
    <glyph glyph-name="uniE683" unicode="&#xe683;" horiz-adv-x="1324" 
d="M797 838q-19 -3 -46 -17q-31 -16 -63 -49l-19 -19l-8 11q-44 57 -116 72q-7 2 -28.5 2t-28.5 -2q-48 -10 -85 -48q-9 -10 -19.5 -24.5t-10.5 -17.5q0 -2 -3 -7q-8 -18 -9 -49q-1 -26 3 -42q4 -14 5 -18l11 -20q6 -14 11 -23q4 -8 104 -107q100 -101 100 -102t-97 -98
q-99 -99 -102 -105q-19 -28 -30 -61q-4 -11 -5 -38t2 -37q3 -8 3 -11q0 -2 7.5 -17.5t13.5 -23.5q14 -21 38 -39q26 -19 65 -28q8 -2 26.5 -2t26.5 2q37 8 64 24q11 7 29.5 23.5t27.5 28.5l5 7l19 -20q20 -20 27 -24q9 -7 14 -11q21 -15 50 -25q15 -5 35 -6q36 -2 72 16
q25 12 39 23.5t26 29.5q19 30 23 46q1 6 2 8q2 2 4 18q3 32 -4 54q-3 9 -3 10q0 3 -9 22t-14 26q-4 7 -104 107q-11 11 -22.5 23t-21.5 22l-18 18l-16 16l-11 11l-8 8l-3 3q-1 1 100 102q101 100 106 110q21 34 21 44q0 1 3 9q4 12 4.5 40t-3.5 32q-2 2 -3 9q-1 5 -10 23
t-12 22t-11 14q-21 28 -67 46q-11 4 -15 6q-7 3 -28.5 4t-33.5 -1zM533 733q9 -2 14 -6q5 -2 26.5 -23.5t21.5 -23.5q-1 -1 -28 -30l-29 -29l37 -37l37 -37l29 30l29 30l30 -30l29 -29l37 37l37 36l-27 28q-28 28 -29 28q-1 1 -1 3t21.5 23t26.5 24q4 3 16 6t16 2
q18 -4 25 -9q17 -10 22.5 -31t-3.5 -39q-5 -8 -101 -104q-97 -97 -98 -97q-3 -1 -164 163q-26 27 -32.5 35t-9.5 15q-3 10 -1 19q8 30 30 40q14 8 20.5 9t18.5 -3zM769 205l12 -12q71 -70 82.5 -84.5t11.5 -30.5v-2q0 -36 -30 -50q-9 -4 -23.5 -4t-22.5 4q-5 3 -29 25
t-24 24q0 1 27 30q28 28 27 30q0 2 -35 37.5t-36 35.5t-29 -29l-29 -29l-29 29q-29 29 -29.5 29t-37.5 -36l-37 -36l22 -23q35 -35 35 -37.5t-23 -24t-28 -24.5q-18 -9 -38 -4q-29 8 -40 41q-3 11 -1 20t4 13t34 37q7 6 42.5 42.5t56.5 57.5q65 67 67.5 67t99.5 -96z
M201 535q-27 -1 -47 -10q-8 -4 -9 -4t-13 -8q-17 -11 -33.5 -31t-25.5 -39q-5 -12 -6 -14q-6 -11 -6 -48q0 -35 7 -56t26 -46q10 -13 16 -18t23 -17q26 -17 46 -20q9 -2 11 -3t27 -1q38 0 69 15q30 15 43 29q4 5 20 20l20 19l29 -28q29 -28 30 -28t36.5 35.5t35.5 36.5
q0 2 -28 30q-29 27 -29 28q0 2 29 30q28 28 28 29.5t-37 37.5l-37 37l-17 -18q-24 -25 -28 -29q-10 -11 -12 -11q-2 1 -24 22q-23 23 -33 30q-2 1 -4.5 3t-4.5 3.5t-3 1.5q-1 1 -14 9q-32 16 -85 13zM234 430q9 -3 13 -6q4 -2 25.5 -23.5t21.5 -23.5q0 -1 -6 -6
q-8 -7 -22 -21q-17 -16 -24.5 -20t-24.5 -4t-23 3q-17 9 -26 26q-5 10 -4 24q2 32 25 45q25 14 45 6zM1101 535q-57 -4 -120 -73q-8 -9 -9 -9q-2 0 -10 9q-2 1 -12 12t-16 17l-19 20l-37 -37q-37 -36 -37 -38q1 -1 28.5 -29t27.5 -30q0 -1 -28 -29q-28 -27 -28 -28.5
t36 -37.5t37 -35l29 28l28 28l24 -22q34 -34 62 -47q29 -14 66 -14q30 0 49.5 6.5t48.5 26.5q17 12 34 36q17 26 21 46q2 11 3 20q6 28 -2 60q-11 47 -51 84q-23 22 -55 32q-26 8 -70 4zM1137 430q24 -7 34 -28q5 -8 5 -25t-5 -26q-5 -8 -16 -16l-10 -8l-20 -1q-20 0 -27 5
q-8 4 -23 19t-21 20q-7 6 -7 7t23 25t34 27q18 6 33 1z" />
    <glyph glyph-name="uniE684" unicode="&#xe684;" 
d="M255 491zM769 494v-1v1zM405 125v1v-1zM404 641h1h-1zM619 643v-1v1zM255 276v1v-1zM618 125h-1h1zM512 828q-90 0 -172.5 -35.5t-141.5 -94.5t-94.5 -141.5t-35.5 -172.5t35.5 -172.5t94.5 -141.5t141.5 -94.5t172.5 -35.5t172.5 35.5t141.5 94.5t94.5 141.5t35.5 172.5
t-35.5 172.5t-94.5 141.5t-141.5 94.5t-172.5 35.5zM674 465v301q51 -22 95 -56q19 -16 34 -31q39 -39 66 -86q6 -11 12 -23l-207 -208q3 19 1 38q0 7 -1 14v51zM466 795q24 3 47 3q54 0 106 -14q13 -3 26 -8v-294q-12 16 -26 28q-5 5 -11 9l-36 37l-18 17l-195 195
q51 21 107 27zM188 641q15 19 31 35q39 38 86 65q11 7 23 13l208 -208q-19 3 -38 2l-14 -2h-352q22 51 56 95zM102 338q-3 24 -3 47q0 54 15 106q3 13 7 26h294q-16 -12 -28 -26q-5 -5 -9 -11l-36 -37l-17 -17l-196 -195q-20 51 -27 107zM350 305v-301q-51 22 -95 57
q-19 15 -35 31q-38 38 -65 85q-6 11 -13 23l208 208q-3 -19 -1 -38q0 -7 1 -14v-51zM512 518q55 0 94.5 -39.5t39.5 -94.5t-39.5 -94.5t-94.5 -39.5t-94.5 39.5t-39.5 94.5t39.5 94.5t94.5 39.5zM558 -27q-24 -3 -47 -3q-54 0 -106 14q-13 3 -26 8v294q12 -16 26 -28
q6 -5 11 -9l37 -36l17 -18l195 -195q-51 -21 -107 -27zM834 125q-15 -19 -31 -34q-38 -39 -86 -66q-11 -6 -23 -12l-208 207q19 -3 38 -1q7 0 14 1h352q-21 -51 -56 -95zM903 251h-294q16 12 28 26q5 5 9 11l36 36l17 18l196 195q21 -51 27 -107q3 -24 3 -47q0 -54 -14 -106
zM769 277z" />
    <glyph glyph-name="uniE685" unicode="&#xe685;" 
d="M650 789q-8 -11 -42.5 -26t-70.5 -23q-78 -15 -121 -39q-32 -18 -47.5 -40.5t-11.5 -43.5q2 -10 109 -160q108 -150 110 -154q2 -3 -7 -4q-9 0 -27 1q-67 4 -124.5 -27.5t-84.5 -86.5q-13 -27 -13 -62q0 -94 94 -139q18 -8 32 -10t51 -2q41 0 53.5 2t40.5 16
q74 35 101 97.5t-4 125.5q-13 29 -114 197l-99 166l17 1q96 7 142 59q20 23 27.5 48t4.5 63q-3 48 -10 47q-3 0 -6 -6z" />
    <glyph glyph-name="uniE686" unicode="&#xe686;" 
d="M517 262q9 -6 9 -15q0 -8 27 -66q27 -57 85 -118q59 -62 87 -79l21 -15v-1q-99 -57 -232 -60q-106 -1 -208 47q-4 2 -8.5 4.5t-9.5 5.5t-8 4q3 4 18 14q29 17 88 78q57 60 84 117q28 61 32 73q3 7 7 10t8 1zM592 862q57 -11 87 -22q122 -45 206 -147.5t104 -230.5
q22 -148 -42 -282q-24 -50 -72 -108q-8 2 -23 8q-31 14 -87 67q-55 51 -89 101q-31 47 -48 89q-16 38 -28 88t-12 243zM430 860q3 -65 3 -115q1 -92 0 -175q-1 -98 -6 -131q-3 -20 -11 -45q-16 -51 -36 -92q-20 -40 -60 -94q-17 -22 -44 -49t-49 -43q-54 -39 -71 -45l-2 -1
q-44 50 -73 110q-64 132 -42.5 277.5t119.5 253.5q35 39 96.5 78t94.5 51q72 26 81 20z" />
    <glyph glyph-name="uniE687" unicode="&#xe687;" 
d="M617 827q-9 -2 -9 -7q0 -2 4 -2q3 0 14 -9q11 -8 11 -22q0 -18 -12.5 -22.5t-42.5 3.5q-22 6 -75 7.5t-81 -2.5q-77 -11 -140.5 -52t-92.5 -100q-36 -70 -13.5 -150t95.5 -144q28 -24 55 -38q27 -15 37.5 -24.5t6.5 -16.5q-7 -14 -46 -19q-26 -2 -39 -7.5t-27 -18.5
q-20 -18 -29 -44.5t-4 -46t24 -19.5q17 0 21 32q3 23 18.5 34.5t34.5 5.5q5 -3 10 -13q8 -16 3 -35.5t-22 -35.5q-15 -14 -27 -30.5t-12 -22.5q0 -9 12 -20.5t22 -13.5q23 -4 47.5 25.5t36.5 75.5q6 23 13 34q11 15 27.5 15.5t26.5 -14.5q6 -10 2 -32q-4 -25 -15 -44.5
t-33 -41.5q-27 -28 -27 -37q0 -16 15 -27t33 -7q13 2 33 22q16 16 21.5 28t17.5 59q9 35 20 46.5t31 6.5q11 -3 22 -14t11 -26t-15 -34q-23 -27 -26.5 -41.5t9.5 -25.5q17 -15 37 -2q21 13 37.5 49.5t16.5 71.5q0 16 -6 34.5t-16 28.5q-10 12 -30 23q-26 13 -36.5 28.5
t-3 27.5t31.5 16q40 5 77 19q62 23 109.5 69.5t64.5 100.5q7 21 8 54t-4 57q-20 99 -99 157q-19 14 -24.5 24t-8.5 34q-4 29 -12.5 42.5t-28.5 23.5q-10 5 -29 7t-30 0zM578 683q42 -21 74 -71q25 -38 6 -48q-10 -5 -17 0t-21 27q-25 38 -48.5 54t-55.5 16q-45 0 -87 -22
q-29 -14 -37 -6q-19 20 36 44q15 7 35 13q22 6 57 5q24 -1 33.5 -3t24.5 -9zM444 537q67 -16 131 -28q57 -12 82 -22.5t35 -27.5q15 -26 2.5 -55.5t-45.5 -46.5q-64 -33 -156 -15t-153 75q-47 43 -47 89q0 28 12.5 39t43 9t95.5 -17z" />
    <glyph glyph-name="uniE688" unicode="&#xe688;" 
d="M309 777q-69 -13 -125.5 -46.5t-91.5 -78.5t-51.5 -99.5t-10 -107t38 -103t86.5 -86.5q10 -6 9 -13.5t-15 -48.5l-16 -48l58 31l57 30l31 -7q54 -14 100 -14h16l-6 22q-16 60 2 120.5t61 105.5t108.5 73.5t139.5 28.5h27l-5 19q-22 76 -85 133t-150.5 81t-177.5 8z
M284 633q23 -16 24 -43t-21 -41q-17 -11 -35.5 -8.5t-29.5 14.5t-14.5 29t8.5 35q11 15 32 19.5t36 -5.5zM527 633q17 -12 21 -31t-3.5 -34.5t-24.5 -23.5t-37 -1q-30 12 -32.5 44t25.5 47q11 6 26 5.5t25 -6.5zM636 511q-106 -20 -171.5 -92t-61.5 -164q3 -61 37.5 -113
t88.5 -82.5t122.5 -42t137.5 9.5l22 6l46 -25q46 -25 48 -23q1 3 -11 40q-11 34 -10.5 40t14.5 16q54 39 78 91t18.5 103.5t-35.5 100t-76.5 83t-111.5 49.5t-135 3zM631 378q9 -7 13 -20t0 -24q-8 -25 -35 -26t-37 22q-11 27 11.5 45.5t47.5 2.5zM829 374q14 -14 12 -33.5
t-19 -28.5q-26 -13 -46.5 6.5t-7.5 45.5q9 16 28 19.5t33 -9.5z" />
    <glyph glyph-name="uniE689" unicode="&#xe689;" 
d="M434 687q-1 0 -10.5 -1t-15.5 -1q-108 -10 -205 -63.5t-139 -125.5q-29 -50 -31 -101t19.5 -96.5t65 -86t102 -69.5t134.5 -46t158 -17q72 0 135 11q121 22 217 88t117 142q12 42 10 73q-3 55 -46.5 101t-111.5 73.5t-154.5 37.5t-175.5 -8q-20 -4 -50 -13
q-77 -22 -135 -68.5t-58 -86.5q0 -20 11 -33.5t44 -32.5q15 -9 99 -57q55 -31 76 -40t35.5 -7.5t40.5 15.5q156 89 170 99q17 13 14 30.5t-25 29.5q-7 4 -34 19q-22 13 -25.5 13t-24.5 -12q-17 -10 -43 -25q-35 -21 -47.5 -28t-27 -10.5t-20.5 0t-21 12.5q-12 7 -19 11
q-53 31 -53 36q0 1 2 3q43 33 106.5 48.5t126.5 10t117.5 -23t84.5 -51t22 -73.5q-12 -54 -65.5 -95.5t-130.5 -59.5t-161.5 -19t-166.5 24.5t-137 72.5q-40 34 -53 77t2.5 85.5t50.5 81.5t93.5 70t130.5 47q63 13 144 13q57 0 57 1q0 2 -27 9t-46 10q-23 3 -65.5 5.5
t-60.5 0.5z" />
    <glyph glyph-name="uniE68A" unicode="&#xe68a;" 
d="M590 794q-4 -9 -19 -100q-2 -14 -4 -18l-1 -4h-211l-3 -15q-44 -230 -50 -238q-2 -2 -104 -2t-102 -1t-13 -60q-32 -146 -31.5 -146.5t101.5 0t102 -2.5t-11 -59q-16 -78 -24 -116q-12 -60 -12 -61h222h222l4 13q0 2 1.5 8.5t2.5 12t2 9.5q2 10 15 65q4 22 11.5 54.5
t12.5 54.5t6 26l1 6l69 1l69 1l10 35q10 35 11 40l1 3h-190l-8 -37q-9 -39 -25 -110q-15 -66 -19 -86l-4 -15h-338v3q0 3 3 18l3 15h294l5 21q17 79 17 80q7 27 23 103q10 45 10.5 46t117 1t116.5 1t10.5 37.5t10.5 38t-142 1.5t-143 -2q-2 -5 -9 -40q-2 -6 -5.5 -22.5
t-6.5 -30.5t-5 -23q-3 -11 -12 -52q-7 -35 -16 -73l-1 -4h-247l1 10q1 11 3 19l2 10h99q99 0 99.5 1t7.5 34q36 161 38 170l1 3h-100q-101 0 -101 2q-1 2 3 26l5 23l152 1h152l13 59q13 59 14 61t116 2h115l9 30q9 31 11 40l3 11h-288l-2 -9q-5 -25 -11 -58q-9 -49 -10 -52
v-4h-260v4q2 5 5 19q3 16 4 19t105 4h104l1 5q2 7 13 60l12 55h327l2 7q8 31 21 73l-15 2h-176h-190zM285 331.5q1 -1.5 -2 -12.5q-1 -4 -3 -10.5t-2 -7.5l-2 -7h-79h-80q0 2 8 19.5t9 18.5q2 1 76 1t75 -1.5zM491 331q0 -2 -8 -19l-7 -18h-73q-73 0 -73 1q0 3 4.5 19.5
t5.5 17.5q3 1 77 1t74 -2z" />
    <glyph glyph-name="uniE68B" unicode="&#xe68b;" 
d="M475 844q-50 -7 -106 -21q-80 -23 -156 -88.5t-114 -143.5q-10 -23 -21 -52q-6 -17 -13.5 -44.5t-7.5 -33.5q-10 -79 -2 -127q9 -60 11 -66q12 -41 20 -61q9 -23 27 -54q8 -13 37 -55q9 -11 31.5 -34t32.5 -31q13 -10 14 -11q28 -26 82.5 -51.5t104.5 -35.5
q93 -20 169 -5q59 10 112.5 32.5t88.5 51.5q51 40 83 78q15 20 38 55q10 14 23.5 43.5t13.5 35.5q0 3 -34.5 3t-35.5 -2l5 -15q5 -11 4.5 -14t-9.5 -17q-15 -21 -27 -39t-17.5 -26.5t-10 -15t-6 -9t-3.5 -4.5q-18 -29 -23 -31t-275.5 -1.5t-273.5 2.5q-3 3 -9 13
q-13 20 -25 37t-19.5 27t-13.5 19t-9 13t-5 7.5t-4 4.5l-2 3q-7 11 -8 14t3 12q2 6 7 18.5t8 21.5l4 9q136 335 197 484q8 20 9 22q3 9 8 19t6 9t13 -29.5t12 -29.5q92 -221 97 -233q5 -17 8 -17t31 70q34 85 61 153q10 25 10 26q4 13 14.5 38t12.5 25t14 -30
q74 -185 77 -192q10 -21 20 -52l1 -1q1 -5 9.5 -5.5t57.5 -0.5h36l95 1q-2 17 -20 57t-36 68q-54 82 -137 135t-178 67q-18 3 -54.5 4t-52.5 0zM600 513q-4 -8 -11 -24q-56 -137 -95 -236q-13 -31 -14 -34q-6 -14 -8.5 -14t-7.5 13q-103 252 -112 275q-8 19 -10 19.5
t-5 -7.5q-1 -2 -3 -7q-112 -274 -117 -287t-5 -15q1 -1 260 -1l259 1v3q-104 258 -105 260q-22 55 -24 55q-1 0 -2 -1zM776 468h93q92 0 94 4q1 1 -1 9l-2 10h-96h-96zM785 447l9 -21l88 -1h88q0 20 -3 20q-2 2 -91 3t-91 -1zM804 403l8 -23h79q79 0 80 2q2 2 1.5 11
t-2.5 10t-83 1t-83 -1zM822 359q-1 -1 1.5 -10t4.5 -11t70.5 -2t70.5 2q1 1 1.5 6t0 10t-1.5 5q-2 1 -74.5 1t-72.5 -1zM838 315q-1 -2 2 -10t6 -12q1 -1 59 -1h57l4 24h-64q-62 0 -64 -1zM856 271q5 -15 5 -17q2 -4 8 -4.5t41 -0.5l42 1l1 4l4 18h-51q-50 0 -50 -1z" />
    <glyph glyph-name="uniE68C" unicode="&#xe68c;" 
d="M437 820q-89 -16 -163.5 -64t-121.5 -116.5t-69.5 -148t-11 -166.5t57.5 -165q40 -68 100 -117.5t127 -74t141.5 -27t143.5 17.5t132.5 65.5t108.5 112.5q52 79 67 168t-3 169t-65 152t-112.5 120.5t-152.5 69.5t-179 4zM460 652v-20q0 -56 -4.5 -65.5t-31.5 -11.5
q-9 0 -14 -1q-67 -5 -87 -31.5t-23 -112.5q1 -44 0 -76t4 -55t11 -37.5t19.5 -23t29.5 -13t42 -6.5h6q16 -2 22.5 -3t14 -5t9.5 -7t4 -14.5t2 -20.5v-32v-15q0 -67 -7.5 -75.5t-54.5 9.5q-69 21 -122 65.5t-84 100t-42 120.5t0 127.5t46.5 122.5t92.5 103q31 26 81.5 48.5
t74.5 22.5h11v-94zM612 738q77 -22 136 -72.5t89.5 -117t37.5 -140t-18.5 -147.5t-80.5 -132q-41 -41 -104 -74.5t-95 -30.5l-7 4l-4 74v20q-1 50 3.5 58.5t29.5 10.5q6 0 10 1q25 2 41.5 5t29.5 11.5t20 19t12 31t7 43.5t3 61q0 50 -3 80t-9 52.5t-19.5 33.5t-32.5 17
t-49 8l-39 4l-4 12q-3 12 -3 90.5t3 81.5q6 6 46 -4zM624 469q9 -6 9 -82.5t-9 -85.5t-114.5 -9t-111.5 9q-3 6 -3 84t3 84q6 3 113 3t113 -3z" />
    <glyph glyph-name="uniE68D" unicode="&#xe68d;" 
d="M465 812q-42 -4 -88 -19q-53 -18 -58 -28q-5 -8 -1 -16t15 -11q44 -18 75.5 -49.5t44.5 -73.5q7 -21 8 -50.5t2 -297.5v-313h17q34 -3 68 0h17v311q0 47 1 122q0 152 1 180t7 44q1 2 1 4q30 87 120 123q18 6 17 18t-19 21q-51 24 -112 33.5t-116 1.5zM238 715
q-79 -66 -123 -166q-54 -125 -20.5 -264.5t140.5 -230.5q11 -9 13 -8q4 11 4 147v150l-3 5q-13 15 -36 5t-32 -34q-5 -13 -9 -14t-10 7q-15 18 -21 46t0 53q4 16 14 34t16 18q5 -3 12 -16q10 -24 32 -33t34 5q1 2 2 78.5t1 152t-2 75.5q-7 -5 -12 -10zM778 42l5 4
q35 24 74 76t56 95q3 10 5 14q8 16 17 57q4 10 4 15q6 27 -1 41t-25 13q-32 -6 -47 -45q-8 -19 -24 11q-20 37 -16 72q4 39 24 61q11 12 14 1q18 -42 48 -47q25 -4 29 23q1 9 -1 21q-20 132 -117 232q-5 5 -15 14.5t-13 12.5l-17 11v-682zM318 651v-652l12 -5q48 -24 66 -24
h5q0 441 -1.5 515t-9.5 99q-8 21 -27 43t-38 31q-6 4 -7.5 3t0.5 -10zM703 658q-60 -32 -74 -107q-1 -19 -1.5 -298.5t1.5 -284.5q4 0 7 2q7 3 14 3q20 9 43 17l16 7q1 2 1 4q6 7 1 591l-1 69q-3 0 -7 -3z" />
    <glyph glyph-name="uniE68E" unicode="&#xe68e;" 
d="M452 -98q20 -23 49.5 -23t49.5 23q5 5 15 16q19 21 39 45q64 76 117 150q58 81 97 152q77 137 77 229q0 109 -53 201.5t-143.5 146.5t-198 54t-198.5 -54t-143.5 -146.5t-52.5 -201.5q0 -92 77 -230q39 -70 97 -151q53 -74 117 -150q20 -24 39 -45q10 -11 15 -17v1z
M487 -65q-5 5 -14 16q-19 20 -38 43q-63 75 -116 148q-56 78 -94 146q-70 127 -70 206q0 96 46 177.5t126 128.5t174.5 47t174 -47t126 -128.5t46.5 -177.5q0 -79 -70 -205q-38 -68 -94 -147q-53 -73 -116 -147q-19 -24 -38 -44q-9 -10 -14 -16q-6 -7 -14.5 -7.5t-14.5 6.5
v1zM715 429q14 37 14 77q0 91 -63.5 155t-152.5 64t-152 -64t-63 -155t63 -155.5t152 -64.5q54 0 101 26q9 5 12 14.5t-1.5 18.5t-14 12t-18.5 -2q-37 -20 -79 -20q-69 0 -118 50t-49 121t49 121t118.5 50t118.5 -50t49 -121q0 -31 -11 -60q-3 -9 1 -18.5t13 -13t18 1
t13 13.5z" />
    <glyph glyph-name="uniE68F" unicode="&#xe68f;" 
d="M919 295q-39 -4 -86 -34.5t-89.5 -73.5t-84 -95.5t-71.5 -97t-51 -81.5q-9 12 -28 35.5t-24.5 29.5t-19.5 22t-20 20.5t-19 15.5t-25 18t-28.5 16.5t-38.5 20.5l76 51l127 -152q6 12 17.5 33t48 78.5t75.5 107t98 104t117 84.5q2 -39 6.5 -59.5t19.5 -42.5zM792 702
q0 16 -17 33.5t-34 17.5h-153v51h178q32 0 54.5 -23.5t22.5 -53.5v-305q-15 -15 -27 -26t-17 -14l-5 -4zM639 727h8h8q2 0 7 -0.5t7 -1t5.5 -1.5t5 -2t4 -3t3.5 -4.5t2 -5.5t1 -7v-51h-432v51q0 9 3.5 14.5t12.5 7.5t14.5 2.5t20.5 0.5h76q0 14 -1 66q-1 31 19 58t58 29
q45 2 73.5 -18t28.5 -58v-77h76zM474 829q-16 0 -27 -11t-11 -27t11 -27t27 -11t27 11t11 27t-11 27t-27 11zM156 676v-661q4 -76 76 -76h204q24 -13 34 -23t21 -28h-322q-25 0 -44.5 29t-19.5 58v752q0 33 22.5 55t53.5 22h178v-51h-127q-38 -2 -57 -22t-19 -55zM741 -61
q25 0 38 17t13 34l2 187q10 10 16.5 15.5t16 13t16.5 13.5v-280q0 -27 -12.5 -39t-38.5 -12h-220q0 9 6.5 16.5t18 17t17.5 17.5h127z" />
    <glyph glyph-name="uniE690" unicode="&#xe690;" 
d="M922 39h-302l-108 -129l-129 129h-281q-38 0 -62 23.5t-24 62.5v639q0 39 27 66.5t66 27.5h806q39 0 66 -27.5t27 -66.5v-639q0 -39 -24 -62.5t-62 -23.5zM965 750q0 27 -19 46t-46 19h-776q-27 0 -46 -19t-19 -46v-603q0 -27 19 -46t46 -19h280l108 -108l86 108h302
q27 0 46 19t19 46v603zM745 557h-466q-11 0 -18.5 6t-7.5 15t7.5 15.5t18.5 6.5h466q11 0 18.5 -6.5t7.5 -15.5t-7.5 -15t-18.5 -6zM366 406h270q11 0 19 -6.5t8 -15.5t-8 -15.5t-19 -6.5h-270q-11 0 -19 6.5t-8 15.5t8 15.5t19 6.5z" />
    </font>
</defs>
</svg>
